<?xml version="1.0" encoding="UTF-8" standalone="no"?>
<!-- Created with Inkscape (http://www.inkscape.org/) -->

<svg
   xmlns:svg="http://www.w3.org/2000/svg"
   xmlns="http://www.w3.org/2000/svg"
   xmlns:xlink="http://www.w3.org/1999/xlink"
   version="1.1"
   width="48"
   height="48"
   id="svg5200">
  <defs
     id="defs5202">
    <linearGradient
       x1="-24.067053"
       y1="16.999498"
       x2="-22.758921"
       y2="50.968754"
       id="linearGradient3436"
       xlink:href="#linearGradient4168-3"
       gradientUnits="userSpaceOnUse"
       gradientTransform="matrix(0.82562917,0,0,0.82427463,50.907507,-2.0123092)" />
    <linearGradient
       id="linearGradient4168-3">
      <stop
         id="stop4170-8"
         style="stop-color:#ffffff;stop-opacity:1"
         offset="0" />
      <stop
         id="stop4172-1"
         style="stop-color:#c8c8c8;stop-opacity:1"
         offset="1" />
    </linearGradient>
    <linearGradient
       id="linearGradient4217">
      <stop
         id="stop4219"
         style="stop-color:#302f2c;stop-opacity:1"
         offset="0" />
      <stop
         id="stop4227"
         style="stop-color:#363532;stop-opacity:1"
         offset="0.25" />
      <stop
         id="stop4225"
         style="stop-color:#484642;stop-opacity:1"
         offset="0.5" />
      <stop
         id="stop4229"
         style="stop-color:#686763;stop-opacity:1"
         offset="0.75" />
      <stop
         id="stop4221"
         style="stop-color:#8c8c88;stop-opacity:1"
         offset="1" />
    </linearGradient>
    <linearGradient
       x1="24.979502"
       y1="403.45673"
       x2="25.093044"
       y2="372.45944"
       id="linearGradient5198"
       xlink:href="#linearGradient4217"
       gradientUnits="userSpaceOnUse"
       gradientTransform="translate(-5.0000033,-363.00006)" />
  </defs>
  <g
     id="layer1">
    <rect
       width="46"
       height="46"
       rx="2.7487497"
       ry="2.1453514"
       x="1"
       y="1"
       id="rect5168"
       style="color:#000000;fill:#999999;fill-opacity:1;fill-rule:nonzero;stroke:none;stroke-width:1;marker:none;visibility:visible;display:inline;overflow:visible;enable-background:accumulate" />
    <path
       d="m -752.59375,800.6875 c -1.66617,-0.0247 -2.91617,0.88173 -3.65625,1.96875 -0.75408,1.10757 -1.07073,2.36844 -1.09375,3.375 -0.005,0.22776 -0.11786,0.48659 -0.375,0.875 -0.24014,0.36274 -0.5597,0.80184 -0.84375,1.25 -0.008,0.0129 -0.0231,0.0183 -0.0312,0.0312 -0.008,0.008 -0.0232,0.0233 -0.0312,0.0312 -0.0129,0.0207 -0.0185,0.0417 -0.0312,0.0625 -0.16617,0.16428 -0.38698,0.35287 -0.625,0.59375 -0.0304,-0.0326 -0.12829,-0.15767 -0.15625,-0.1875 -0.18343,-0.30998 -0.21937,-0.32374 0,-0.0312 a 0.97990339,0.97990339 0 0 0 -0.0625,-0.0625 0.97990339,0.97990339 0 0 0 -0.0312,-0.0312 c -0.008,-0.0124 0.009,-0.0195 0,-0.0312 a 0.97990339,0.97990339 0 0 0 -0.0625,-0.0625 0.97990339,0.97990339 0 0 0 0,-0.0312 0.97990339,0.97990339 0 0 0 -0.0312,-0.0312 c -3.5e-4,-3.7e-4 0.0219,0.0472 -0.0312,0 -0.0153,-0.0265 -0.0469,-0.0362 -0.0625,-0.0625 -0.005,-0.008 0.005,-0.0232 0,-0.0312 0.0135,0.014 0.0279,0.0526 -0.0312,0 -0.26765,-0.44691 -0.52671,-0.88931 -0.78125,-1.25 -0.39047,-0.55332 -0.52138,-0.57872 -0.53125,-1 -0.0226,-0.98854 -0.30443,-2.26156 -1.0625,-3.375 -0.73471,-1.07911 -1.98463,-1.9617 -3.625,-1.9375 -1.59284,0.0235 -2.85425,0.67071 -3.59375,1.65625 -0.76888,1.02467 -1.03125,2.35291 -1.03125,3.78125 0,2.71013 1.6472,5.03717 4,5.40625 a 0.97990339,0.97990339 0 0 0 0.1875,0 0.97990339,0.97990339 0 0 0 0.0312,0 l 3.78125,0.0312 a 0.97990339,0.97990339 0 0 0 0.28125,-0.0312 l 0.0937,0.1875 a 0.97990339,0.97990339 0 0 0 -0.21875,0.1875 c -0.58257,0.66679 -1.1291,1.38689 -1.6875,2.09375 -0.37614,0.47613 -0.64723,0.97583 -1,1.46875 l -15.6875,-12.0625 -0.0312,-0.0312 -0.0312,0.0312 c -0.30374,-0.22485 -0.59233,-0.21402 -0.875,-0.1875 l 0,-0.0937 c -0.0398,-0.001 -0.0515,-0.001 -0.0937,0 a 0.97990339,0.97990339 0 0 0 -0.28125,0.0312 c -0.54894,0.19196 -0.87846,0.73732 -0.875,1.3125 1.4e-4,0.0235 -0.0326,0.0389 -0.0312,0.0625 l 0,24.6875 c -0.001,0.76015 0.58312,1.34484 1.34375,1.34375 l 2.625,0 a 0.97990339,0.97990339 0 0 0 0.53125,-0.125 0.97990339,0.97990339 0 0 0 0.46875,0.125 l 4,0 a 0.97990339,0.97990339 0 0 0 0.53125,-0.125 0.97990339,0.97990339 0 0 0 0.46875,0.125 l 4,0 a 0.97990339,0.97990339 0 0 0 0.53125,-0.125 0.97990339,0.97990339 0 0 0 0.46875,0.125 l 4,0 a 0.97990339,0.97990339 0 0 0 0.53125,-0.125 0.97990339,0.97990339 0 0 0 0.46875,0.125 l 4,0 a 0.97990339,0.97990339 0 0 0 0.53125,-0.125 0.97990339,0.97990339 0 0 0 0.46875,0.125 l 8.59375,0 c 1.32755,0.004 1.86943,-1.65319 0.8125,-2.4375 l -1.96875,-1.53125 a 0.97990339,0.97990339 0 0 0 -0.46875,-0.1875 c 0.26144,-1.02165 0.47217,-2.20786 0.46875,-3.78125 -0.003,-1.18182 -0.46746,-2.4744 -1.21875,-3.875 -0.74521,-1.38924 -1.74362,-2.80917 -2.78125,-4.1875 -0.92701,-1.2314 -1.45978,-1.75066 -2.3125,-2.75 a 0.97990339,0.97990339 0 0 0 0.25,-0.3125 l 0.0312,-0.0625 a 0.97990339,0.97990339 0 0 0 0.5625,0.1875 l 3.65625,-0.0312 a 0.97990339,0.97990339 0 0 0 0.125,0 c 2.43842,-0.29528 4.21875,-2.67268 4.21875,-5.46875 0,-1.45679 -0.33116,-2.79623 -1.09375,-3.8125 -0.7518,-1.00203 -2.01859,-1.66379 -3.625,-1.6875 z m -13.15625,3.59375 c 0.69191,-0.0118 1.20381,0.24904 1.46875,0.53125 0.30814,0.32823 0.46875,0.75498 0.46875,1.21875 l 0,2.875 -2,-0.0312 a 0.97990339,0.97990339 0 0 0 -0.0312,0 0.97990339,0.97990339 0 0 0 -0.125,-0.0312 c -0.47554,-0.0665 -0.84269,-0.33976 -1.15625,-0.8125 -0.31356,-0.47274 -0.53125,-1.14528 -0.53125,-1.90625 0,-0.82463 0.15917,-1.23748 0.40625,-1.46875 0.26825,-0.25107 0.67476,-0.36094 1.5,-0.375 z m 13.15625,0.125 c 0.8042,0.0137 1.28273,0.14761 1.5,0.34375 0.21419,0.19336 0.34375,0.52336 0.34375,1.375 0,0.76283 -0.2003,1.47742 -0.5,1.9375 -0.30213,0.46381 -0.69433,0.72106 -1.125,0.78125 l -2.09375,0.0312 -0.0625,-2.875 c -0.0142,-0.82136 0.51408,-1.61798 1.9375,-1.59375 z m -6.5625,7.8125 c 0.0558,0 0.125,0.0551 0.125,0.15625 0,0.10113 -0.0692,0.15625 -0.125,0.15625 -0.0558,0 -0.15625,-0.1 -0.15625,-0.15625 0,-0.0563 0.10044,-0.15625 0.15625,-0.15625 z m -0.125,4.90625 2.21875,4.40625 -3.1875,-2.40625 a 0.97990339,0.97990339 0 0 0 -0.0312,-0.0312 l 1,-1.96875 z M -774.875,818 l 6.21875,4.6875 -6.21875,0 0,-4.6875 z"
       transform="translate(789.85712,-789.64795)"
       id="path4357"
       style="opacity:0.15;color:#000000;fill:#000000;fill-opacity:1;fill-rule:nonzero;stroke:none;marker:none;visibility:visible;display:inline;overflow:visible;enable-background:accumulate" />
    <path
       d="m -752.5625,799.59375 c -2.03914,-0.0302 -3.72001,1.1854 -4.59375,2.46875 -0.90323,1.32663 -1.2524,2.67595 -1.28125,3.9375 0.002,-0.0856 0.0358,-0.0249 -0.1875,0.3125 -0.14395,0.21744 -0.36076,0.54869 -0.5625,0.84375 -0.1606,-0.23529 -0.33309,-0.52651 -0.46875,-0.71875 -0.445,-0.63058 -0.31025,-0.31014 -0.3125,-0.40625 -0.0278,-1.2167 -0.33331,-2.59108 -1.25,-3.9375 -0.87606,-1.28673 -2.54936,-2.46719 -4.5625,-2.4375 -1.84978,0.0273 -3.51442,0.86356 -4.4375,2.09375 -0.97405,1.29808 -1.25,2.86412 -1.25,4.4375 0,1.40134 0.43588,2.71184 1.125,3.8125 l -9.5625,-7.375 c -0.0215,-0.0176 -0.0411,-0.0146 -0.0625,-0.0312 -0.53891,-0.41889 -1.04926,-0.49547 -1.53125,-0.46875 l 0,-0.0312 c -0.0738,-0.002 -0.0766,-0.003 -0.15625,0 a 2.0648377,2.0648377 0 0 0 -0.375,0.0625 2.0648377,2.0648377 0 0 0 -0.25,0.0625 c -0.9874,0.34528 -1.59702,1.2787 -1.59375,2.3125 l -0.0312,0 0,0.125 0,24.625 c -0.002,1.37769 1.05916,2.43947 2.4375,2.4375 l 2.625,0 a 2.0648377,2.0648377 0 0 0 0.5,-0.0625 2.0648377,2.0648377 0 0 0 0.5,0.0625 l 4,0 a 2.0648377,2.0648377 0 0 0 0.5,-0.0625 2.0648377,2.0648377 0 0 0 0.5,0.0625 l 4,0 a 2.0648377,2.0648377 0 0 0 0.5,-0.0625 2.0648377,2.0648377 0 0 0 0.5,0.0625 l 4,0 a 2.0648377,2.0648377 0 0 0 0.5,-0.0625 2.0648377,2.0648377 0 0 0 0.5,0.0625 l 4,0 a 2.0648377,2.0648377 0 0 0 0.5,-0.0625 2.0648377,2.0648377 0 0 0 0.5,0.0625 l 8.59375,0 c 2.41339,0.007 3.32592,-2.88713 1.46875,-4.34375 l 0.0312,-0.0312 -0.0625,-0.0312 -1.78125,-1.40625 c 0.17374,-0.92672 0.28392,-1.9874 0.28125,-3.21875 -0.003,-1.52231 -0.57645,-2.8863 -1.375,-4.375 -0.78849,-1.46993 -1.78853,-2.94207 -2.84375,-4.34375 -0.40141,-0.53322 -0.59902,-0.68672 -1,-1.1875 l 2.34375,-0.0312 a 2.0648377,2.0648377 0 0 0 0.21875,0 c 3.09738,-0.37508 5.1875,-3.29994 5.1875,-6.5625 0,-1.63105 -0.36231,-3.20247 -1.3125,-4.46875 -0.92745,-1.23615 -2.60522,-2.0975 -4.46875,-2.125 z M -765.75,805.375 c 0.41591,-0.007 0.66341,0.16184 0.6875,0.1875 0.10622,0.11315 0.15625,0.24692 0.15625,0.46875 l 0,1.75 -0.78125,0 -0.0312,0 -0.0937,0 c -0.14305,-0.02 -0.23141,-0.0802 -0.40625,-0.34375 -0.17484,-0.2636 -0.34375,-0.74145 -0.34375,-1.3125 0,-0.67397 0.11607,-0.73764 0.0625,-0.6875 -0.018,0.0169 0.009,-0.0499 0.75,-0.0625 z m 13.15625,0.125 c 0.7132,0.0122 0.8809,0.15245 0.78125,0.0625 -0.10614,-0.0958 -0.0312,-0.17359 -0.0312,0.5625 0,0.58709 -0.15963,1.10907 -0.3125,1.34375 -0.14375,0.22067 -0.25852,0.26338 -0.34375,0.28125 l -0.90625,0 -0.0312,-1.75 c -0.004,-0.22946 -0.0824,-0.51576 0.84375,-0.5 z m -7.03125,6.21875 c 0.19033,0.2038 0.38619,0.38436 0.625,0.65625 0.0349,0.0398 0.0569,0.0514 0.0937,0.0937 A 2.0648377,2.0648377 0 0 0 -758.1875,813 c -0.13575,0.21785 -0.30543,0.33645 -0.53125,0.4375 l -0.5625,-1.0625 -0.34375,-0.65625 z m -7.59375,0.6875 c 0.23712,0.0724 0.43485,0.21037 0.6875,0.25 a 2.0648377,2.0648377 0 0 0 0.375,0.0312 l 1.96875,0.0312 c -0.17934,0.22522 -0.38462,0.43108 -0.5625,0.65625 -0.15037,0.19035 -0.25854,0.40001 -0.40625,0.59375 l -2.0625,-1.5625 z m -6.5625,7.78125 1.875,1.40625 -1.875,0 0,-1.40625 z"
       transform="translate(789.85712,-789.64795)"
       id="path4357-0"
       style="opacity:0.07000002;color:#000000;fill:#000000;fill-opacity:1;fill-rule:nonzero;stroke:none;marker:none;visibility:visible;display:inline;overflow:visible;enable-background:accumulate" />
    <path
       d="m 37.249997,11.999941 c -1.32931,-0.0197 -2.2244,0.6528 -2.84375,1.5625 -0.61937,0.90971 -0.91975,2.06749 -0.9375,2.84375 -0.012,0.51078 -0.24359,0.94049 -0.53125,1.375 -0.28765,0.43451 -0.63634,0.90191 -0.90625,1.34375 -0.0141,0.0277 -0.0424,0.0389 -0.0625,0.0625 -0.19056,0.18809 -0.49737,0.49171 -0.8125,0.8125 0.41894,0.45622 0.77365,0.81247 1.34375,1.46875 l 0.375,-0.75 c 0.11125,-0.22938 0.47887,-0.27702 0.65625,-0.0937 l 0.4375,0.4375 3.65625,-0.0312 c 1.84326,-0.22321 3.375,-2.12525 3.375,-4.5 0,-1.29939 -0.3131,-2.42828 -0.90625,-3.21875 -0.59315,-0.79058 -1.46956,-1.29232 -2.84375,-1.3126 z m -13.15625,0.0625 c -1.36077,0.0201 -2.2388,0.51668 -2.8125,1.28125 -0.58358,0.77772 -0.84375,1.89015 -0.84375,3.1875 0,2.31126 1.41135,4.15888 3.1875,4.4375 0.0172,-5.3e-4 0.0453,-5.3e-4 0.0625,0 l 3.78125,0.03125 c 0.39282,-0.18302 0.90018,-0.0122 1.09375,0.375 l 8.71875,17.25 c 0.14741,-0.2434 0.19436,-0.25441 0.40625,-0.8125 0.39326,-1.03584 0.78599,-2.59904 0.78125,-4.78125 -0.002,-0.87429 -0.41639,-2.08522 -1.125,-3.40625 -0.70612,-1.31637 -1.66575,-2.70527 -2.6875,-4.0625 -2.0019,-2.65924 -4.18551,-5.06866 -5.03125,-5.96875 -0.0186,-0.0248 -0.0467,-0.0358 -0.0625,-0.0625 -0.009,-0.008 -0.02285,-0.0226 -0.03125,-0.0312 0.002,0.002 6.5e-4,-0.0272 0,-0.0312 -0.009,-0.008 -0.02285,-0.0224 -0.03125,-0.0312 -0.0142,-0.0212 -0.0348,-0.0117 -0.0625,-0.0625 -0.009,-0.008 -0.02285,-0.0226 -0.03125,-0.0312 -0.2588,-0.46834 -0.60092,-0.94233 -0.90625,-1.375 -0.34123,-0.48354 -0.67075,-0.81628 -0.6875,-1.53125 -0.0179,-0.78247 -0.29144,-1.94073 -0.90625,-2.84375 -0.60704,-0.8916 -1.50881,-1.55048 -2.8125,-1.53125 z m -0.03125,1.59375 c 0.94119,-0.016 1.73628,0.32982 2.21875,0.84375 0.49051,0.52249 0.71875,1.19272 0.71875,1.875 l 0,3 c 0.005,0.44643 -0.42783,0.84879 -0.875,0.84375 l -2.25,-0.0312 c -0.0436,-0.005 -0.08278,-0.0193 -0.125,-0.0312 -1.55168,-0.21685 -2.53125,-1.82247 -2.53125,-3.6875 0,-0.9607 0.20013,-1.70206 0.71875,-2.1875 0.52683,-0.49309 1.22391,-0.60965 2.125,-0.625 z m 13.21875,0.125 c 0.8864,0.0151 1.62149,0.13921 2.125,0.59375 0.50351,0.45455 0.65625,1.13775 0.65625,2.09375 0,0.92156 -0.22394,1.80509 -0.65625,2.46875 -0.43232,0.66367 -1.07163,1.11521 -1.8125,1.21875 -0.0172,0.001 -0.0453,0.001 -0.0625,0 l -2.75,0.0312 c -0.20104,-0.006 -0.36935,-0.17429 -0.375,-0.375 l -0.0625,-3.4375 c -0.0234,-1.35595 1.06492,-2.62562 2.9375,-2.59375 z m -29.0312503,0.71875 c -0.157,0.0549 -0.2596,0.20918 -0.25,0.375 l 0,24.75 c -2.9e-4,0.20239 0.17228,0.37529 0.375,0.375 l 2.6250003,0 0,-2.5 c 0,-0.277 0.223,-0.5 0.5,-0.5 0.277,0 0.5,0.223 0.5,0.5 l 0,2.5 4,0 0,-2.5 c 0,-0.277 0.223,-0.5 0.5,-0.5 0.277,0 0.5,0.223 0.5,0.5 l 0,2.5 4,0 0,-2.5 c 0,-0.277 0.223,-0.5 0.5,-0.5 0.277,0 0.5,0.223 0.5,0.5 l 0,2.5 4,0 0,-2.5 c 0,-0.277 0.223,-0.5 0.5,-0.5 0.277,0 0.5,0.223 0.5,0.5 l 0,2.5 4,0 0,-2.5 c 0,-0.277 0.223,-0.5 0.5,-0.5 0.277,0 0.5,0.223 0.5,0.5 l 0,2.5 8.59375,0 c 0.32292,10e-4 0.47792,-0.49518 0.21875,-0.6875 l -1.96875,-1.53125 c -0.0452,0.13385 -0.0788,0.28481 -0.125,0.40625 -0.22967,0.60491 -0.39669,0.82942 -0.5,1 -0.3842,0.66297 -1.52772,0.62047 -1.875,-0.0625 l -2.6875,-5.34375 -4.65625,-3.53125 -4.5625,9.0625 c -0.11712,0.22616 -0.48885,0.25456 -0.65625,0.0625 0,0 -0.48003,-0.55403 -0.90625,-1.65625 -0.31396,-0.81196 -0.60483,-2.2158 -0.75,-3.71875 l -8.125,0 0,-7.625 8.03125,6.0625 c 0.0195,-1.70841 1.07053,-3.69052 2.4375,-5.6875 L 8.6249967,14.562441 c -0.0918,-0.0754 -0.22809,-0.0901 -0.34375,-0.0625 -0.009,-2.8e-4 -0.02265,-2.8e-4 -0.03125,0 z m 22.4375003,7.40625 c 0.45599,0 0.8125,0.35725 0.8125,0.8125 0,0.45522 -0.35651,0.8125 -0.8125,0.8125 -0.45598,0 -0.84375,-0.35728 -0.84375,-0.8125 0,-0.45525 0.38777,-0.8125 0.84375,-0.8125 z m -2.3125,1.0625 c -0.56007,0.64104 -1.09713,1.32348 -1.65625,2.03125 -2.08474,2.63894 -3.91892,5.6434 -3.90625,7.53125 0.0156,2.32036 0.42134,3.89469 0.8125,4.90625 0.21945,0.56754 0.29801,0.59422 0.4375,0.8125 l 6,-11.96875 -1.6875,-3.3125 z"
       id="path3773"
       style="color:#000000;fill:url(#linearGradient3436);fill-opacity:1;fill-rule:nonzero;stroke:none;marker:none;visibility:visible;display:inline;overflow:visible;enable-background:accumulate" />
  </g>
</svg>
