<?xml version="1.0" encoding="UTF-8" standalone="no"?>
<!-- Created with Inkscape (http://www.inkscape.org/) -->

<svg
   xmlns:svg="http://www.w3.org/2000/svg"
   xmlns="http://www.w3.org/2000/svg"
   xmlns:xlink="http://www.w3.org/1999/xlink"
   version="1.1"
   width="48"
   height="48"
   id="svg5200">
  <defs
     id="defs5202">
    <linearGradient
       x1="-24.067053"
       y1="16.999498"
       x2="-22.758921"
       y2="50.968754"
       id="linearGradient3436"
       xlink:href="#linearGradient4168-3"
       gradientUnits="userSpaceOnUse"
       gradientTransform="matrix(0.82562917,0,0,0.82427463,50.907507,-2.0123092)" />
    <linearGradient
       id="linearGradient4168-3">
      <stop
         id="stop4170-8"
         style="stop-color:#ffffff;stop-opacity:1"
         offset="0" />
      <stop
         id="stop4172-1"
         style="stop-color:#c8c8c8;stop-opacity:1"
         offset="1" />
    </linearGradient>
    <linearGradient
       x1="34.976364"
       y1="14.998325"
       x2="35.047058"
       y2="52"
       id="linearGradient4608"
       xlink:href="#linearGradient4168-21"
       gradientUnits="userSpaceOnUse"
       gradientTransform="matrix(0.82608933,0,0,0.82753584,-67.57762,-33.174726)" />
    <linearGradient
       id="linearGradient4168-21">
      <stop
         id="stop4170-0"
         style="stop-color:#ffffff;stop-opacity:1"
         offset="0" />
      <stop
         id="stop4172-51"
         style="stop-color:#c8c8c8;stop-opacity:1"
         offset="1" />
    </linearGradient>
    <linearGradient
       id="linearGradient4491">
      <stop
         id="stop4493"
         style="stop-color:#959591;stop-opacity:1"
         offset="0" />
      <stop
         id="stop4501"
         style="stop-color:#797875;stop-opacity:1"
         offset="0.25" />
      <stop
         id="stop4499"
         style="stop-color:#4e4d4b;stop-opacity:1"
         offset="0.5" />
      <stop
         id="stop4503"
         style="stop-color:#3c3b37;stop-opacity:1"
         offset="0.75" />
      <stop
         id="stop4495"
         style="stop-color:#343330;stop-opacity:1"
         offset="1" />
    </linearGradient>
    <linearGradient
       x1="29.157831"
       y1="423.28589"
       x2="29.157831"
       y2="460.98489"
       id="linearGradient5810"
       xlink:href="#linearGradient4491"
       gradientUnits="userSpaceOnUse"
       gradientTransform="translate(-70.14286,-448.14292)" />
    <linearGradient
       x1="29.157831"
       y1="423.28589"
       x2="29.157831"
       y2="460.98489"
       id="linearGradient5860"
       xlink:href="#linearGradient4491"
       gradientUnits="userSpaceOnUse"
       gradientTransform="translate(-70.14286,-448.14292)" />
    <linearGradient
       x1="34.976364"
       y1="14.998325"
       x2="35.047058"
       y2="52"
       id="linearGradient5862"
       xlink:href="#linearGradient4168-21"
       gradientUnits="userSpaceOnUse"
       gradientTransform="matrix(0.82608933,0,0,0.82753584,-67.57762,-33.174726)" />
    <linearGradient
       x1="34.976364"
       y1="14.998325"
       x2="35.047058"
       y2="52"
       id="linearGradient5866"
       xlink:href="#linearGradient4168-21"
       gradientUnits="userSpaceOnUse"
       gradientTransform="matrix(0.82608933,0,0,0.82753584,-2.43476,-2.031869)" />
    <linearGradient
       x1="29.157831"
       y1="423.28589"
       x2="29.157831"
       y2="460.98489"
       id="linearGradient5871"
       xlink:href="#linearGradient4491"
       gradientUnits="userSpaceOnUse"
       gradientTransform="translate(-110.42857,-363.00006)" />
  </defs>
  <g
     id="layer1">
    <rect
       width="46"
       height="46"
       rx="2.7487497"
       ry="2.1453514"
       x="1"
       y="1"
       id="rect5168"
       style="color:#000000;fill:#999999;fill-opacity:1;fill-rule:nonzero;stroke:none;stroke-width:1;marker:none;visibility:visible;display:inline;overflow:visible;enable-background:accumulate" />
    <path
       d="m -782.65625,852.65625 c -0.50342,0.004 -1.13606,0.16577 -1.59375,0.625 -0.47204,0.47352 -0.59375,1.05555 -0.59375,1.5625 l 0,4.40625 0,0.0312 c 2.5e-4,0.0226 2.4e-4,0.0696 0,0.0625 -3.6e-4,-0.0106 8.9e-4,0.073 0,0.0625 -8.9e-4,-0.0105 0.0327,0.073 0.0312,0.0625 -0.001,-0.0105 0.002,0.0729 0,0.0625 -0.002,-0.0104 0.002,0.0728 0,0.0625 -0.002,-0.0103 0.0342,0.0726 0.0312,0.0625 -0.003,-0.0101 0.0347,0.10369 0.0312,0.0937 -0.003,-0.01 0.004,0.0722 0,0.0625 -0.004,-0.01 0.0357,0.072 0.0312,0.0625 -0.004,-0.01 0.0361,0.0405 0.0312,0.0312 -0.005,-0.009 0.0366,0.0715 0.0312,0.0625 -0.005,-0.009 0.037,0.0712 0.0312,0.0625 -0.31539,0.13988 -0.66779,0.20923 -0.875,0.53125 -0.27336,0.42484 -0.34715,0.86729 -0.34375,1.21875 0.003,0.27192 0.0449,0.53299 0.0625,0.71875 0.0176,0.18576 -0.0225,0.37716 0,0.1875 a 0.99348549,0.99348549 0 0 0 0,0.0625 c 0.001,-0.0144 0,0.10819 0,0.0937 0,-0.01 -0.001,0.0279 0,0.0625 4.8e-4,0.0105 -4.8e-4,0.0208 0,0.0312 0.32249,6.99843 0.64831,13.84608 0.96875,20.84375 a 0.99348549,0.99348549 0 0 0 0.0312,0.15625 c -0.002,-0.0112 0.003,0.10482 0,0.0937 -0.003,-0.0111 0.0349,0.10463 0.0312,0.0937 -0.004,-0.0109 0.0355,0.0732 0.0312,0.0625 -0.004,-0.0107 0.0362,0.10414 0.0312,0.0937 l 0.0312,-0.0312 c 0.18048,0.46595 0.46495,0.86725 0.96875,1.125 0.44222,0.22621 0.8301,0.27323 1.125,0.28125 0.57155,0.0157 1.10384,-0.0317 0.90625,-0.0625 a 0.99348549,0.99348549 0 0 0 0.0937,0.0312 c -0.0148,-0.001 0.10863,0 0.0937,0 -0.005,0 0.0137,7.3e-4 0.0312,0 0.035,-0.001 0.0724,-7.6e-4 0.0625,0 l 32.46875,0 0.0312,0 c 0.035,-1.3e-4 0.0724,-3.8e-4 0.0625,0 a 0.99348549,0.99348549 0 0 0 0.0625,0 c 0.52771,-0.0518 1.06296,-0.2944 1.4375,-0.78125 0.32443,-0.42176 0.43381,-0.86939 0.46875,-1.1875 0.0324,-0.29527 0.003,-0.55621 0,-0.75 -0.003,-0.19379 0.0305,-0.36775 0,-0.21875 a 0.99348549,0.99348549 0 0 0 0.0312,-0.15625 c -1.8e-4,0.005 6e-5,-0.014 0,-0.0312 -1.2e-4,-0.0345 -3.6e-4,-0.0721 0,-0.0625 0.32197,-6.98649 0.64872,-13.82377 0.96875,-20.8125 a 0.99348549,0.99348549 0 0 0 0,-0.125 c 0.001,0.0149 -0.0337,-0.10849 -0.0312,-0.0937 0.002,0.0147 -0.0349,-0.13952 -0.0312,-0.125 0.002,0.01 0.01,-0.0281 0,-0.0625 -0.002,-0.009 0.002,-0.0227 0,-0.0312 0.005,0.0142 -0.0684,-0.10756 -0.0625,-0.0937 l -0.0312,0 c -0.1666,-0.48969 -0.45251,-0.90982 -0.90625,-1.15625 -0.0336,-0.0182 -0.0599,-0.0152 -0.0937,-0.0312 -0.005,0.0101 0.0358,-0.0729 0.0312,-0.0625 -0.005,0.0104 0.0353,-0.0731 0.0312,-0.0625 -0.004,0.0106 0.0347,-0.10459 0.0312,-0.0937 -0.003,0.0108 0.003,-0.0735 0,-0.0625 -0.003,0.011 0.0335,-0.0737 0.0312,-0.0625 -0.002,0.0112 0.002,-0.0738 0,-0.0625 -0.002,0.0113 0.0323,-0.10514 0.0312,-0.0937 -0.001,0.0114 4.3e-4,-0.0739 0,-0.0625 -2.9e-4,0.008 -3.2e-4,-0.0381 0,-0.0625 1.6e-4,-0.0122 -6e-5,-0.0351 0,-0.0312 l 0,-1.96875 c 0,-0.72706 -0.3584,-1.33939 -0.875,-1.71875 -0.42021,-0.3086 -0.9512,-0.50637 -1.53125,-0.5 l -16.59375,0 c -0.15514,0 -0.70362,-0.25496 -1.3125,-0.8125 -0.31035,-0.28418 -0.61291,-0.63197 -1.03125,-0.9375 -0.40227,-0.29378 -0.981,-0.65625 -1.75,-0.65625 l -12.71875,0 z m 21.375,12.71875 c 0.32251,7.6e-4 0.5943,0.32195 0.59375,0.5625 -5.4e-4,0.23488 -0.26595,0.56328 -0.59375,0.5625 -0.32235,-7.4e-4 -0.56323,-0.23463 -0.5625,-0.5625 7.4e-4,-0.32244 0.23453,-0.56323 0.5625,-0.5625 z m -19.28125,0.28125 c 0.1774,0 0.28125,0.10384 0.28125,0.28125 0,0.17736 -0.10388,0.28125 -0.28125,0.28125 -0.17739,0 -0.28125,-0.10388 -0.28125,-0.28125 0,-0.17742 0.10384,-0.28125 0.28125,-0.28125 z m 7.28125,0 c 0.18079,5.1e-4 0.28165,0.10655 0.28125,0.28125 -5.1e-4,0.18075 -0.10658,0.28165 -0.28125,0.28125 -0.18074,-5.1e-4 -0.28165,-0.10664 -0.28125,-0.28125 5.1e-4,-0.18079 0.10659,-0.28165 0.28125,-0.28125 z m 6,0.15625 c 0.0863,1.6e-4 0.15636,0.0774 0.15625,0.125 -8e-5,0.0425 -0.10876,0.15636 -0.15625,0.15625 -0.0425,-8e-5 -0.12522,-0.0651 -0.125,-0.15625 1.6e-4,-0.0863 0.0337,-0.12521 0.125,-0.125 z m 0,6.40625 c 0.23511,5.4e-4 0.59429,0.3535 0.59375,0.59375 -5.5e-4,0.23486 -0.26597,0.56326 -0.59375,0.5625 -0.32229,-7.5e-4 -0.56323,-0.23463 -0.5625,-0.5625 7.4e-4,-0.32254 0.32195,-0.59431 0.5625,-0.59375 z M -780.5625,872.5 c 0.14823,0 0.28125,0.13512 0.28125,0.3125 0,0.17738 -0.10387,0.28125 -0.28125,0.28125 -0.17739,0 -0.28125,-0.10386 -0.28125,-0.28125 0,-0.17739 0.133,-0.3125 0.28125,-0.3125 z m 7.28125,0.15625 c 0.0448,0 0.15625,0.1115 0.15625,0.15625 0,0.0448 -0.0678,0.125 -0.15625,0.125 -0.0884,0 -0.125,-0.0365 -0.125,-0.125 0,-0.0884 0.0803,-0.15625 0.125,-0.15625 z m 0,5.5625 c 0.23509,5.5e-4 0.59428,0.35352 0.59375,0.59375 -5.6e-4,0.23477 -0.26605,0.56325 -0.59375,0.5625 -0.32232,-7.4e-4 -0.56325,-0.23461 -0.5625,-0.5625 7.2e-4,-0.32262 0.32203,-0.59429 0.5625,-0.59375 z m -7.28125,0.4375 c 0.0448,0 0.15625,0.1115 0.15625,0.15625 0,0.0447 -0.0678,0.125 -0.15625,0.125 -0.0884,0 -0.125,-0.0366 -0.125,-0.125 0,-0.0885 0.0802,-0.15625 0.125,-0.15625 z"
       transform="translate(789.84278,-843.65725)"
       id="path4677"
       style="opacity:0.15;fill:#000000;fill-opacity:1;stroke:none;display:inline" />
    <path
       d="m -782.6875,851.65625 c -0.66718,0.006 -1.55311,0.20701 -2.25,0.90625 -0.72588,0.72816 -0.90625,1.58716 -0.90625,2.28125 l 0,4.40625 c 1.2e-4,-0.007 -4e-4,0.0271 0,0.0312 0.003,0.029 0.004,0.26686 0,0.21875 -6.5e-4,-0.008 -0.001,0.0254 0,0.0312 -0.16813,0.15517 -0.36572,0.26006 -0.5,0.46875 -0.40131,0.62369 -0.50474,1.32303 -0.5,1.8125 0.003,0.32892 0.0135,0.59393 0.0312,0.78125 0.0145,0.15274 0.012,0.24369 0.0312,0.0625 0.003,-0.0397 0,0.22728 0,0.1875 0,-0.0265 -0.002,0.0623 0,0.125 9.7e-4,0.0209 -9.7e-4,0.0416 0,0.0625 0.32205,6.98836 0.64883,13.82633 0.96875,20.8125 a 2.0054476,2.0054476 0 0 0 0.0312,0.3125 c -0.0127,-0.0618 0.11371,0.34114 0.0937,0.28125 -0.005,-0.0156 0.0191,0.0335 0.0312,0.0625 l -0.0312,0 c 0.0154,0.0438 0.0458,0.0819 0.0625,0.125 0.008,0.0215 0.0226,0.0412 0.0312,0.0625 0.25898,0.63781 0.67249,1.20236 1.4375,1.59375 0.65711,0.33613 1.19227,0.36493 1.5625,0.375 0.7036,0.0193 1.39525,0.0331 0.78125,-0.0625 a 2.0054476,2.0054476 0 0 0 0.15625,0.0312 c -0.0405,-0.003 0.22815,0 0.1875,0 -0.007,0 0.0239,4.6e-4 0.0312,0 0.037,-0.002 0.19003,-0.003 0.15625,0 l 32.34375,0 0.0625,0 c 0.0638,-1.9e-4 0.11811,-9.3e-4 0.0937,0 a 2.0054476,2.0054476 0 0 0 0.125,0 c 0.75182,-0.0738 1.56777,-0.3913 2.15625,-1.15625 0.48734,-0.63354 0.61016,-1.26784 0.65625,-1.6875 0.041,-0.37354 0.0344,-0.67504 0.0312,-0.875 -0.001,-0.0857 -0.005,-0.14894 0,-0.1875 a 2.0054476,2.0054476 0 0 0 0,-0.15625 c -0.001,0.0397 -0.001,-0.19597 0,-0.15625 0.3205,-6.95292 0.65011,-13.7604 0.96875,-20.71875 a 2.0054476,2.0054476 0 0 0 0,-0.28125 c 0.004,0.041 -0.0381,-0.22809 -0.0312,-0.1875 0.007,0.0406 -0.0412,-0.22745 -0.0312,-0.1875 0.004,0.0165 -0.0184,-0.0188 -0.0312,-0.0625 -0.009,-0.0336 -0.0217,-0.0608 -0.0312,-0.0937 0.0131,0.0391 -0.0786,-0.22548 -0.0625,-0.1875 l -0.0312,0 c -0.16523,-0.46009 -0.43315,-0.83869 -0.78125,-1.15625 9.2e-4,-0.004 6.7e-4,-0.0386 0,-0.0312 -0.005,0.052 -0.003,-0.1874 0,-0.21875 4.7e-4,-0.004 -1.3e-4,-0.0387 0,-0.0312 l 0,-1.96875 c 0,-1.09079 -0.51272,-1.96688 -1.28125,-2.53125 -0.56644,-0.41599 -1.32012,-0.68865 -2.125,-0.6875 l -0.0312,0 -16.5625,0 c 0.35485,0 -0.0611,-0.0461 -0.625,-0.5625 -0.29389,-0.26911 -0.62774,-0.63683 -1.125,-1 -0.46478,-0.33943 -1.23176,-0.84375 -2.34375,-0.84375 l -12.71875,0 a 2.0054476,2.0054476 0 0 0 -0.0312,0 z m 21.40625,12.71875 c 0.8921,0.002 1.59541,0.83584 1.59375,1.5625 -0.002,0.71524 -0.69096,1.56464 -1.59375,1.5625 -0.89178,-0.002 -1.56452,-0.65955 -1.5625,-1.5625 0.002,-0.89195 0.65938,-1.56452 1.5625,-1.5625 z m -6,0.4375 c 0.65645,0.001 1.15759,0.54672 1.15625,1.125 -0.001,0.56809 -0.57819,1.15762 -1.15625,1.15625 -0.56799,-0.001 -1.12658,-0.48996 -1.125,-1.15625 0.001,-0.65631 0.45848,-1.12655 1.125,-1.125 z m -13.28125,0.40625 c 0.36523,0 0.71875,0.35351 0.71875,0.71875 0,0.36516 -0.35358,0.71875 -0.71875,0.71875 -0.36519,0 -0.71875,-0.35357 -0.71875,-0.71875 0,-0.36526 0.3535,-0.71875 0.71875,-0.71875 z m 7.28125,0 c 0.35844,0.001 0.71961,0.34794 0.71875,0.71875 -0.001,0.35837 -0.34804,0.7196 -0.71875,0.71875 -0.35835,-0.001 -0.7196,-0.3481 -0.71875,-0.71875 0.001,-0.35842 0.34804,-0.7196 0.71875,-0.71875 z m 6,6 c 0.71568,0.002 1.59538,0.86769 1.59375,1.59375 -0.002,0.71518 -0.691,1.5646 -1.59375,1.5625 -0.89168,-0.002 -1.56452,-0.65955 -1.5625,-1.5625 0.002,-0.89218 0.83584,-1.59544 1.5625,-1.59375 z m -6,0.4375 c 0.57252,0 1.15625,0.58373 1.15625,1.15625 0,0.57255 -0.49545,1.125 -1.15625,1.125 -0.66073,0 -1.125,-0.46426 -1.125,-1.125 0,-0.66071 0.55254,-1.15625 1.125,-1.15625 z m -7.28125,0.4375 c 0.36521,0 0.71875,0.35354 0.71875,0.71875 0,0.36521 -0.29471,0.6875 -0.71875,0.6875 -0.42407,0 -0.71875,-0.32227 -0.71875,-0.6875 0,-0.36523 0.35352,-0.71875 0.71875,-0.71875 z m 7.28125,5.125 c 0.71564,0.002 1.59535,0.86773 1.59375,1.59375 -0.002,0.71503 -0.69115,1.56456 -1.59375,1.5625 -0.89172,-0.002 -1.56456,-0.6595 -1.5625,-1.5625 0.002,-0.89234 0.83599,-1.59538 1.5625,-1.59375 z m -7.28125,0.4375 c 0.57252,0 1.15625,0.58373 1.15625,1.15625 0,0.57249 -0.49551,1.125 -1.15625,1.125 -0.66074,0 -1.125,-0.46426 -1.125,-1.125 0,-0.66077 0.55248,-1.15625 1.125,-1.15625 z"
       transform="translate(789.84132,-843.66263)"
       id="path4677-7"
       style="opacity:0.07000002;fill:#000000;fill-opacity:1;stroke:none;display:inline" />
    <path
       d="m 41.8125,16.999941 c -0.43098,-0.004 -0.83261,0.0625 -1,0.0312 a 0.41167991,0.41405562 0 0 0 -0.09375,0 l -34.75,0 a 0.41167991,0.41405562 0 0 0 -0.0625,0 c -0.30535,0.0354 -0.571,0.17663 -0.71875,0.40625 -0.14774,0.22961 -0.18959,0.47153 -0.1875,0.6875 0.004,0.43192 0.0811,0.87447 0.0625,1.03125 a 0.41167991,0.41405562 0 0 0 0,0.0625 c 0.32293,7.00852 0.64778,13.86584 0.96875,20.875 a 0.41167991,0.41405562 0 0 0 0.03125,0.0937 c 0.10077,0.28632 0.3,0.53794 0.53125,0.65625 0.23125,0.11829 0.4978,0.15024 0.71875,0.15625 0.44191,0.0121 0.82004,-0.0641 1.03125,-0.0312 a 0.41167991,0.41405562 0 0 0 0.0625,0 l 32.5625,0 a 0.41167991,0.41405562 0 0 0 0.03125,0 c 0.3077,-0.0302 0.5855,-0.16117 0.75,-0.375 0.1645,-0.21385 0.22601,-0.46908 0.25,-0.6875 0.048,-0.43684 -0.007,-0.87613 0.03125,-1.0625 a 0.41167991,0.41405562 0 0 0 0,-0.0312 c 0.32296,-7.00916 0.64781,-13.86635 0.96875,-20.875 a 0.41167991,0.41405562 0 0 0 -0.03125,-0.125 c -0.075,-0.28658 -0.27349,-0.53323 -0.5,-0.65625 -0.22652,-0.12303 -0.44072,-0.15427 -0.65625,-0.15625 z m -32.53125,4 c 0.71008,0 1.28125,0.57115 1.28125,1.28125 0,0.71007 -0.57117,1.28125 -1.28125,1.28125 C 8.57116,23.562441 8,22.991261 8,22.281191 c 0,-0.7101 0.57116,-1.28125 1.28125,-1.28125 z m 7.28125,0 c 0.71009,0.002 1.28287,0.57115 1.28125,1.28125 -0.002,0.71007 -0.57116,1.28287 -1.28125,1.28125 -0.71008,-0.002 -1.28289,-0.57118 -1.28125,-1.28125 0.002,-0.7101 0.57117,-1.28288 1.28125,-1.28125 z m 6,0.4375 c 0.47339,8.5e-4 0.87612,0.37034 0.875,0.84375 -8.6e-4,0.47337 -0.40161,0.8761 -0.875,0.875 -0.47339,-8.6e-4 -0.84485,-0.40163 -0.84375,-0.875 8.6e-4,-0.47341 0.37036,-0.84487 0.84375,-0.84375 z m 6,0.40625 c 0.23668,5.4e-4 0.43803,0.20079 0.4375,0.4375 -5.4e-4,0.23668 -0.20082,0.43803 -0.4375,0.4375 -0.23669,-5.6e-4 -0.40679,-0.20082 -0.40625,-0.4375 5.4e-4,-0.23671 0.16956,-0.43806 0.40625,-0.4375 z m -19.28125,6 c 0.71008,0 1.28125,0.60242 1.28125,1.3125 0,0.71008 -0.57117,1.28125 -1.28125,1.28125 C 8.57116,30.437441 8,29.866271 8,29.156191 c 0,-0.71008 0.57116,-1.3125 1.28125,-1.3125 z m 7.28125,0.4375 c 0.4734,0 0.875,0.40162 0.875,0.875 0,0.47339 -0.4016,0.84375 -0.875,0.84375 -0.47338,0 -0.84375,-0.37036 -0.84375,-0.84375 0,-0.47338 0.37037,-0.875 0.84375,-0.875 z m 6,0.4375 c 0.23669,5.5e-4 0.43803,0.2008 0.4375,0.4375 -5.4e-4,0.2367 -0.20081,0.4068 -0.4375,0.40625 -0.23669,-5.4e-4 -0.40678,-0.16955 -0.40625,-0.40625 5.5e-4,-0.2367 0.16956,-0.43805 0.40625,-0.4375 z m -13.28125,5.5625 c 0.47339,0 0.875,0.40161 0.875,0.875 0,0.47338 -0.40161,0.84375 -0.875,0.84375 -0.47339,0 -0.84375,-0.37037 -0.84375,-0.84375 0,-0.47339 0.37036,-0.875 0.84375,-0.875 z m 7.28125,0.4375 c 0.23669,5.4e-4 0.43804,0.20079 0.4375,0.4375 -5.3e-4,0.23669 -0.20081,0.40678 -0.4375,0.40625 -0.23669,-5.5e-4 -0.40677,-0.16956 -0.40625,-0.40625 5.6e-4,-0.23671 0.16956,-0.43804 0.40625,-0.4375 z M 7.1875,9.999941 c -0.34265,0.003 -0.65215,0.0889 -0.875,0.3125 C 6.08967,10.535971 6,10.864211 6,11.187441 l 0,4.4375 a 0.37467644,0.368894 0 0 0 0.375,0.375 l 35.25,0 a 0.37467644,0.368894 0 0 0 0.25,-0.0937 0.37467644,0.368894 0 0 0 0.125,-0.2813 l 0,-2 c 0,-0.36998 -0.19949,-0.70852 -0.46875,-0.90625 -0.26924,-0.19773 -0.59032,-0.31631 -0.9375,-0.3125 l -16.59375,0 c -0.65582,0 -1.31574,-0.49581 -1.96875,-1.09375 -0.32651,-0.29898 -0.62788,-0.5948 -0.96875,-0.84375 -0.3409,-0.24896 -0.72399,-0.46875 -1.15625,-0.46875 l -12.71875,0 z m 1.65625,1 9.3125,0 c 0.46876,0 0.84375,0.44599 0.84375,1 0,0.55399 -0.37499,1 -0.84375,1 l -9.3125,0 c -0.46877,0 -0.84375,-0.44601 -0.84375,-1 0,-0.55401 0.37498,-1 0.84375,-1 z"
       id="path4597"
       style="fill:url(#linearGradient5866);fill-opacity:1;stroke:none;display:inline" />
  </g>
</svg>
