<?xml version="1.0" encoding="UTF-8" standalone="no"?>
<!-- Created with Inkscape (http://www.inkscape.org/) -->

<svg
   xmlns:svg="http://www.w3.org/2000/svg"
   xmlns="http://www.w3.org/2000/svg"
   xmlns:xlink="http://www.w3.org/1999/xlink"
   version="1.1"
   width="48"
   height="48"
   id="svg5200">
  <defs
     id="defs5202">
    <linearGradient
       id="linearGradient4168-21">
      <stop
         id="stop4170-0"
         style="stop-color:#ffffff;stop-opacity:1"
         offset="0" />
      <stop
         id="stop4172-51"
         style="stop-color:#c8c8c8;stop-opacity:1"
         offset="1" />
    </linearGradient>
    <linearGradient
       x1="34.976364"
       y1="14.998325"
       x2="35.047058"
       y2="52"
       id="linearGradient5866"
       xlink:href="#linearGradient4168-21"
       gradientUnits="userSpaceOnUse"
       gradientTransform="matrix(0.82608933,0,0,0.82753584,-2.43476,-2.031869)" />
    <linearGradient
       x1="90.443031"
       y1="16.39608"
       x2="90.764702"
       y2="60.39608"
       id="linearGradient4731"
       xlink:href="#linearGradient4168-2"
       gradientUnits="userSpaceOnUse"
       gradientTransform="matrix(0.77272727,0,0,0.82352947,-49.712153,-6.5027094)" />
    <linearGradient
       id="linearGradient4168-2">
      <stop
         id="stop4170-5"
         style="stop-color:#ffffff;stop-opacity:1"
         offset="0" />
      <stop
         id="stop4172-4"
         style="stop-color:#c8c8c8;stop-opacity:1"
         offset="1" />
    </linearGradient>
    <linearGradient
       id="linearGradient4491-3">
      <stop
         id="stop4493-0"
         style="stop-color:#959591;stop-opacity:1"
         offset="0" />
      <stop
         id="stop4501-7"
         style="stop-color:#797875;stop-opacity:1"
         offset="0.25" />
      <stop
         id="stop4499-7"
         style="stop-color:#4e4d4b;stop-opacity:1"
         offset="0.5" />
      <stop
         id="stop4503-2"
         style="stop-color:#3c3b37;stop-opacity:1"
         offset="0.75" />
      <stop
         id="stop4495-1"
         style="stop-color:#343330;stop-opacity:1"
         offset="1" />
    </linearGradient>
    <linearGradient
       x1="29.157831"
       y1="423.28589"
       x2="29.157831"
       y2="460.98489"
       id="linearGradient5922"
       xlink:href="#linearGradient4491-3"
       gradientUnits="userSpaceOnUse"
       gradientTransform="translate(-5.000013,-419.00002)" />
  </defs>
  <g
     id="layer1">
    <rect
       width="46"
       height="46"
       rx="2.7487497"
       ry="2.1453514"
       x="1"
       y="1"
       id="rect5168"
       style="color:#000000;fill:#999999;fill-opacity:1;fill-rule:nonzero;stroke:none;stroke-width:1;marker:none;visibility:visible;display:inline;overflow:visible;enable-background:accumulate" />
    <path
       d="m -773.59375,903.75 c -1.21888,0 -2.15625,1.05898 -2.15625,2.25 l 0,25.3125 c 0,1.19102 0.93737,2.25 2.15625,2.25 l 0.0625,0 c -0.0861,0.17335 -0.21875,0.31948 -0.21875,0.53125 l 0,6.125 c 0,0.77445 0.6607,1.34375 1.375,1.34375 l 12.0625,0 c 0.71431,0 1.375,-0.56928 1.375,-1.34375 l 0,-6.125 c 0,-0.21178 -0.13265,-0.3579 -0.21875,-0.53125 l 0.0625,0 c 1.21888,0 2.15625,-1.05899 2.15625,-2.25 l 0,-25.3125 c 0,-1.19101 -0.93737,-2.25 -2.15625,-2.25 l -14.5,0 z m 7.28125,5.71875 0.21875,0.34375 a 0.90359377,0.90359377 0 0 0 -0.15625,0.0937 0.90359377,0.90359377 0 0 0 -0.0312,0 0.90359377,0.90359377 0 0 0 -0.21875,-0.0937 c 0.0645,-0.11468 0.12323,-0.22905 0.1875,-0.34375 z m 3.375,3.0625 1.1875,0 0,1.375 c -0.234,0.0669 -0.48059,0.15828 -0.6875,0.34375 -0.10277,-0.14206 -0.12007,-0.31645 -0.25,-0.375 -0.12312,-0.0555 -0.16511,-0.0481 -0.25,-0.0625 l 0,-1.28125 z m -6.8125,3.0625 c 0.2224,0.11468 0.38812,0.3597 0.5,0.71875 -0.0134,-0.0429 9.8e-4,0.18292 -0.0937,0.40625 -0.0947,0.22333 -0.26957,0.41189 -0.3125,0.4375 -0.0242,0.003 -0.11277,-0.0443 -0.46875,0.125 -0.0554,0.0263 -0.10028,0.0817 -0.15625,0.125 -0.0221,-0.0254 -0.0434,-0.0747 -0.0625,-0.0937 -0.10301,-0.10258 -0.1753,-0.14462 -0.28125,-0.25 -0.28531,-0.28379 -0.34178,-0.60039 -0.3125,-0.84375 0.0293,-0.24336 0.12852,-0.43102 0.4375,-0.59375 0.24617,-0.12964 0.5276,-0.14593 0.75,-0.0312 z m 3.375,10.75 a 0.90359377,0.90359377 0 0 0 0.15625,0.125 l 0.375,0.21875 a 0.90359377,0.90359377 0 0 0 0.0625,0.0312 c -0.15095,-0.0729 0.31219,0.33511 0.40625,0.53125 0.20111,0.4194 0.13515,0.75774 -0.0312,1.03125 -0.16178,0.26592 -0.41666,0.45852 -0.84375,0.46875 -0.0142,-5.2e-4 -0.0174,7.7e-4 -0.0312,0 -0.36781,-0.0204 -0.61827,-0.13908 -0.75,-0.25 -0.13669,-0.1151 -0.21875,-0.20916 -0.21875,-0.53125 0,-0.54019 0.0793,-0.76987 0.15625,-0.90625 0.077,-0.13638 0.20398,-0.24151 0.46875,-0.46875 l -0.0312,-0.0312 c 0.0928,-0.053 0.18706,-0.14017 0.28125,-0.21875 z m -3.5625,10.21875 1.1875,0 0,1.1875 -1.1875,0 0,-1.1875 z m 6,0 1.1875,0 0,1.1875 -1.1875,0 0,-1.1875 z"
       transform="translate(789.85712,-897.64795)"
       id="path4772"
       style="opacity:0.15;color:#000000;fill:#000000;fill-opacity:1;fill-rule:nonzero;stroke:none;marker:none;visibility:visible;display:inline;overflow:visible;enable-background:accumulate" />
    <path
       d="m -773.59375,902.6875 c -1.8288,0 -3.21875,1.59511 -3.21875,3.3125 l 0,25.3125 c 0,1.30803 0.81096,2.51914 2,3.03125 l 0,5.875 c 0,1.39356 1.18686,2.40625 2.4375,2.40625 l 12.0625,0 c 1.25067,0 2.4375,-1.01263 2.4375,-2.40625 l 0,-5.875 c 1.18904,-0.51211 2,-1.72324 2,-3.03125 l 0,-25.3125 c 0,-1.71738 -1.38995,-3.3125 -3.21875,-3.3125 l -14.5,0 z"
       transform="translate(789.85712,-897.64795)"
       id="path4772-1"
       style="opacity:0.07000002;color:#000000;fill:#000000;fill-opacity:1;fill-rule:nonzero;stroke:none;marker:none;visibility:visible;display:inline;overflow:visible;enable-background:accumulate" />
    <path
       d="m 16.249997,6.9999406 c -0.69564,0 -1.25,0.60429 -1.25,1.34375 l 0,25.3124994 c 0,0.73946 0.55436,1.34375 1.25,1.34375 l 14.5,0 c 0.69565,0 1.25,-0.60429 1.25,-1.34375 l 0,-25.3124994 c 0,-0.73946 -0.55435,-1.34375 -1.25,-1.34375 l -14.5,0 z m 7.28125,3 1.75,3.0000004 -1.1875,0 0,8.40625 c 0.16637,0 1.79485,-1.66031 2.34375,-2.40625 0.23717,-0.32228 0.375,-0.78695 0.375,-1.21875 0,-0.65123 0.21509,-0.78125 -0.28125,-0.78125 l -0.53125,0 0,-3.03125 3,0 0,3.03125 -0.5,0 c -0.43251,0.0507 -0.73084,0.27785 -0.8125,1 -0.12172,1.07693 -0.58512,1.78906 -2.28125,3.5 l -1.3125,1.4375 0,5.093749 0.375,0.21875 c 0.26661,0.12878 0.63033,0.55761 0.8125,0.9375 0.64922,1.35386 -0.23049,2.8125 -1.71875,2.8125 -1.0785,-0.0395 -1.875,-0.60154 -1.875,-1.6875 0,-1.27741 0.41785,-1.61651 0.9375,-2.0625 0.41719,-0.20153 0.47425,-0.3206 0.46875,-0.96875 -0.007,-0.71629 -0.07958,-0.62885 -1.40625,-1.78125 -2.02544,-1.75953 -2.2934,-2.20316 -2.53125,-3.968749 -0.17543,-1.30217 -0.05893,-0.99913 -0.5625,-1.5 -0.92689,-0.92195 -0.75966,-2.29388 0.34375,-2.875 0.99401,-0.52347 2.16812,0.0534 2.53125,1.21875 0.17897,0.57429 -0.23634,1.56253 -0.8125,1.90625 -0.52724,0.31456 -0.74557,-0.22196 -0.625,0.9375 0.0669,0.64174 0.21173,1.39596 0.34375,1.65625 0.22674,0.447039 2.44596,2.531249 2.6875,2.531249 l 0,-12.406249 -1.21875,0 c 0.56932,-0.98857 1.136,-2.00543 1.6875,-3.0000004 z m -6.0625,25.9999994 c -0.25419,0 -0.46875,0.19417 -0.46875,0.4375 l 0,6.125 c 0,0.24333 0.21456,0.4375 0.46875,0.4375 l 12.0625,0 c 0.25418,0 0.46875,-0.19417 0.46875,-0.4375 l 0,-6.125 c 0,-0.24333 -0.21457,-0.4375 -0.46875,-0.4375 l -12.0625,0 z m 1.53125,2 3,0 0,3 -3,0 0,-3 z m 6,0 3,0 0,3 -3,0 0,-3 z"
       id="path4711"
       style="color:#000000;fill:url(#linearGradient4731);fill-opacity:1;fill-rule:nonzero;stroke:none;marker:none;visibility:visible;display:inline;overflow:visible;enable-background:accumulate" />
  </g>
</svg>
