<?xml version="1.0" encoding="UTF-8" standalone="no"?>
<!-- Created with Inkscape (http://www.inkscape.org/) -->

<svg
   xmlns:dc="http://purl.org/dc/elements/1.1/"
   xmlns:cc="http://creativecommons.org/ns#"
   xmlns:rdf="http://www.w3.org/1999/02/22-rdf-syntax-ns#"
   xmlns:svg="http://www.w3.org/2000/svg"
   xmlns="http://www.w3.org/2000/svg"
   xmlns:sodipodi="http://sodipodi.sourceforge.net/DTD/sodipodi-0.dtd"
   xmlns:inkscape="http://www.inkscape.org/namespaces/inkscape"
   width="22"
   height="22"
   id="svg2"
   version="1.1"
   inkscape:version="0.48.3.1 r9886"
   sodipodi:docname="master-scope-developer.svg">
  <defs
     id="defs4">
    <inkscape:perspective
       id="perspective2447"
       inkscape:persp3d-origin="372.04724 : 350.78739 : 1"
       inkscape:vp_z="744.09448 : 526.18109 : 1"
       inkscape:vp_y="0 : 1000 : 0"
       inkscape:vp_x="0 : 526.18109 : 1"
       sodipodi:type="inkscape:persp3d" />
    <inkscape:perspective
       sodipodi:type="inkscape:persp3d"
       inkscape:vp_x="0 : 0.5 : 1"
       inkscape:vp_y="0 : 1000 : 0"
       inkscape:vp_z="1 : 0.5 : 1"
       inkscape:persp3d-origin="0.5 : 0.33333333 : 1"
       id="perspective2846" />
    <inkscape:perspective
       id="perspective2824"
       inkscape:persp3d-origin="32 : 21.333333 : 1"
       inkscape:vp_z="64 : 32 : 1"
       inkscape:vp_y="0 : 1000 : 0"
       inkscape:vp_x="0 : 32 : 1"
       sodipodi:type="inkscape:persp3d" />
  </defs>
  <sodipodi:namedview
     id="base"
     pagecolor="#888888"
     bordercolor="#666666"
     borderopacity="1.0"
     inkscape:pageopacity="1"
     inkscape:pageshadow="2"
     inkscape:zoom="24.286128"
     inkscape:cx="16.748826"
     inkscape:cy="16.355529"
     inkscape:document-units="px"
     inkscape:current-layer="layer1"
     showgrid="true"
     inkscape:window-width="1920"
     inkscape:window-height="1029"
     inkscape:window-x="0"
     inkscape:window-y="24"
     inkscape:window-maximized="1"
     inkscape:snap-global="true"
     inkscape:snap-bbox="true"
     inkscape:bbox-paths="true"
     inkscape:snap-bbox-edge-midpoints="true"
     inkscape:bbox-nodes="true"
     inkscape:snap-bbox-midpoints="true"
     inkscape:snap-grids="true">
    <inkscape:grid
       type="xygrid"
       id="grid2985"
       empspacing="8"
       visible="true"
       enabled="true"
       snapvisiblegridlinesonly="true" />
  </sodipodi:namedview>
  <metadata
     id="metadata7">
    <rdf:RDF>
      <cc:Work
         rdf:about="">
        <dc:format>image/svg+xml</dc:format>
        <dc:type
           rdf:resource="http://purl.org/dc/dcmitype/StillImage" />
        <dc:title />
      </cc:Work>
    </rdf:RDF>
  </metadata>
  <g
     inkscape:label="Layer 1"
     inkscape:groupmode="layer"
     id="layer1"
     transform="translate(0,-1030.3622)">
    <path
       style="color:#000000;fill:#ffffff;fill-opacity:1;fill-rule:nonzero;stroke:none;stroke-width:2;marker:none;visibility:visible;display:inline;overflow:visible;enable-background:accumulate"
       d="m 16.375,1033.3622 c -0.931058,-0.01 -1.849007,0.3496 -2.5625,1.0625 -0.951263,0.9513 -1.260145,2.2561 -0.9375,3.4688 l -1.53125,1.5312 L 12,1040.081 c 0.621119,-0.1188 1.282498,-0.061 1.75,0.4062 l 0.875,0.8438 0.84375,-0.8438 c 1.212795,0.3226 2.517508,0.014 3.46875,-0.9375 0.951263,-0.9513 1.260145,-2.2872 0.9375,-3.5 l -1.5625,1.5625 -2.25,-0.3125 -0.3125,-2.25 1.5625,-1.5625 c -0.303187,-0.081 -0.627147,-0.1223 -0.9375,-0.125 z m -7.84375,8.875 -5,5.0313 c -0.7125711,0.7127 -0.7125059,1.85 0,2.5625 0.7125522,0.7126 1.8499469,0.7126 2.5625,0 l 4.34375,-4.3438 -0.84375,-0.8437 c -0.467598,-0.4675 -0.525032,-1.1289 -0.40625,-1.75 l -0.65625,-0.6563 z m -3.71875,5.4063 c 0.2327478,0 0.4786902,0.072 0.65625,0.25 0.3552009,0.3551 0.3551951,0.9261 0,1.2812 -0.3551678,0.3553 -0.9260227,0.3552 -1.28125,0 -0.3551375,-0.3551 -0.3551952,-0.926 0,-1.2812 0.1775744,-0.1776 0.3922522,-0.2501 0.625,-0.25 z"
       id="rect3006"
       inkscape:connector-curvature="0" />
    <path
       style="color:#000000;fill:#ffffff;fill-opacity:1;fill-rule:nonzero;stroke:none;stroke-width:2;marker:none;visibility:visible;display:inline;overflow:visible;enable-background:accumulate"
       d="m 8.2718283,1032.3622 2.7256727,2.7256 -0.681419,0.6815 -1.3628346,0 -0.6814191,0.6814 0,1.3627 3.4070907,3.4072 c 0.377505,-0.3776 0.98533,-0.3776 1.362835,0 l 6.132765,6.1328 c 0.377506,0.3775 0.377506,0.9853 0,1.3628 l -1.362836,1.3629 c -0.377505,0.3775 -0.985331,0.3775 -1.362837,0 l -6.132764,-6.1328 c -0.377505,-0.3775 -0.377505,-0.9854 0,-1.3628 l -3.4070907,-3.4071 -1.362835,0 c 0,0 -2.044256,0.6814 -2.044256,3.4071 l -1.362835,0 c -0.681419,-3.4071 1.362835,-5.4515 1.362835,-5.4515 l 2.725673,-2.7256 1.362837,0 0,-1.3628 0.681418,-0.6814 z"
       id="rect3020"
       inkscape:connector-curvature="0" />
  </g>
</svg>
