<?xml version="1.0" encoding="utf-8"?>
<!-- Generator: Adobe Illustrator 15.0.0, SVG Export Plug-In . SVG Version: 6.00 Build 0)  -->
<!DOCTYPE svg PUBLIC "-//W3C//DTD SVG 1.1//EN" "http://www.w3.org/Graphics/SVG/1.1/DTD/svg11.dtd">
<svg version="1.1" id="Layer_1" xmlns="http://www.w3.org/2000/svg" xmlns:xlink="http://www.w3.org/1999/xlink" x="0px" y="0px"
	 width="22px" height="22px" viewBox="0 0 22 22" enable-background="new 0 0 22 22" xml:space="preserve">
<path fill="#FFFFFF" d="M19,3.5H3c-0.532,0-1,0.467-1,1v13c0,0.533,0.468,1,1,1h16c0.533,0,1-0.467,1-1v-13
	C20,3.967,19.533,3.5,19,3.5z M4.5,17.5h-1v-1h1V17.5z M4.5,15.5h-1v-1h1V15.5z M4.5,13.5h-1v-1h1V13.5z M4.5,11.5h-1v-1h1V11.5z
	 M4.5,9.5h-1v-1h1V9.5z M4.5,7.5h-1v-1h1V7.5z M4.5,5.5h-1v-1h1V5.5z M13.267,12.241c-0.61,0.431-1.226,0.85-1.849,1.259
	c-0.621,0.408-1.226,0.785-1.815,1.129C9.015,14.973,8.479,15.263,8,15.5v-9c0.458,0.236,0.981,0.527,1.57,0.871
	c0.588,0.343,1.194,0.715,1.816,1.113c0.62,0.398,1.242,0.812,1.863,1.242c0.622,0.429,1.205,0.849,1.75,1.257
	C14.455,11.393,13.877,11.812,13.267,12.241z M18.5,17.5h-1v-1h1V17.5z M18.5,15.5h-1v-1h1V15.5z M18.5,13.5h-1v-1h1V13.5z
	 M18.5,11.5h-1v-1h1V11.5z M18.5,9.5h-1v-1h1V9.5z M18.5,7.5h-1v-1h1V7.5z M18.5,5.5h-1v-1h1V5.5z"/>
</svg>
