<?xml version="1.0" encoding="utf-8"?>
<!-- Generator: Adobe Illustrator 15.0.0, SVG Export Plug-In . SVG Version: 6.00 Build 0)  -->
<!DOCTYPE svg PUBLIC "-//W3C//DTD SVG 1.1//EN" "http://www.w3.org/Graphics/SVG/1.1/DTD/svg11.dtd">
<svg version="1.1" id="Layer_1" xmlns="http://www.w3.org/2000/svg" xmlns:xlink="http://www.w3.org/1999/xlink" x="0px" y="0px"
	 width="22px" height="22px" viewBox="0 0 22 22" enable-background="new 0 0 22 22" xml:space="preserve">
<g>
	<g>
		<path fill="#FFFFFF" d="M19,7.007h-1.8l-5.88-4.9c-0.186-0.154-0.455-0.154-0.641,0l-5.88,4.9H3c-0.552,0-1,0.447-1,1v11
			c0,0.553,0.448,1,1,1h16c0.552,0,1-0.447,1-1v-11C20,7.455,19.552,7.007,19,7.007z M11,3.142l4.639,3.866H6.361L11,3.142z
			 M3.5,9.007c-0.276,0-0.5-0.224-0.5-0.5c0-0.276,0.224-0.5,0.5-0.5S4,8.23,4,8.507C4,8.785,3.776,9.007,3.5,9.007z M6.008,19.009
			c0-1.548,0.116-2.14,2.046-3.129c1.325-0.68,1.454-1.177,1.454-1.584c0-0.272-0.184-0.694-0.357-0.897
			c-0.171-0.199-0.426-0.301-0.545-0.521c-0.197-0.365-0.301-1.092-0.24-1.412c0.043-0.228,0.24-0.25,0.24-0.454
			c0-0.183-0.043-0.479-0.043-0.979c0-0.705,0.261-1.115,0.545-1.342c0.212-0.17,0.458-0.205,0.61-0.228
			c0.11-0.137,0.371-0.335,0.765-0.409c0.158-0.03,0.347-0.046,0.523-0.046c0.828,0,1.482,0.318,1.811,0.614
			c0.363,0.328,0.635,0.705,0.635,1.41c0,0.5-0.047,0.796-0.047,0.979c0,0.204,0.197,0.227,0.242,0.454
			c0.062,0.32-0.045,1.046-0.242,1.412c-0.117,0.223-0.371,0.322-0.545,0.521c-0.174,0.205-0.354,0.627-0.354,0.898
			c0,0.407,0.127,0.904,1.449,1.584c1.924,0.989,2.039,1.581,2.039,3.129L6.008,19.009L6.008,19.009z M18.5,9.007
			c-0.275,0-0.5-0.224-0.5-0.5c0-0.276,0.225-0.5,0.5-0.5s0.5,0.224,0.5,0.5C19,8.784,18.775,9.007,18.5,9.007z"/>
	</g>
</g>
</svg>
