<?xml version="1.0" encoding="UTF-8" standalone="no"?>
<!-- Created with Inkscape (http://www.inkscape.org/) -->

<svg
   xmlns:svg="http://www.w3.org/2000/svg"
   xmlns="http://www.w3.org/2000/svg"
   version="1.1"
   width="22"
   height="22"
   id="svg3767">
  <defs
     id="defs3769" />
  <g
     transform="translate(0,6)"
     id="layer1">
    <path
       d="m 11,-4 c -4.9705629,0 -9,4.0294371 -9,9 0,4.970563 4.0294371,9 9,9 4.970563,0 9,-4.029437 9,-9 0,-4.9705629 -4.029437,-9 -9,-9 z m 0,2 c 2.312315,0 4.350378,1.1466239 5.625,2.875 L 11,7 8,4 6,6 11,10 17.65625,2.84375 C 17.87454,3.5210122 18,4.250131 18,5 18,8.865993 14.865993,12 11,12 7.1340067,12 4,8.865993 4,5 4,1.1340067 7.1340067,-2 11,-2 z"
       id="path2922-6"
       style="color:#000000;fill:#ffffff;fill-opacity:1;fill-rule:nonzero;stroke:none;stroke-width:0.84323651;marker:none;visibility:visible;display:inline;overflow:visible;enable-background:accumulate" />
  </g>
</svg>
