<?xml version="1.0" encoding="utf-8"?>
<!-- Generator: Adobe Illustrator 15.0.0, SVG Export Plug-In . SVG Version: 6.00 Build 0)  -->
<!DOCTYPE svg PUBLIC "-//W3C//DTD SVG 1.1//EN" "http://www.w3.org/Graphics/SVG/1.1/DTD/svg11.dtd">
<svg version="1.1" id="Layer_1" xmlns="http://www.w3.org/2000/svg" xmlns:xlink="http://www.w3.org/1999/xlink" x="0px" y="0px"
	 width="22px" height="22px" viewBox="0 0 22 22" enable-background="new 0 0 22 22" xml:space="preserve">
<g>
	<g>
		<path fill="#FFFFFF" d="M11,2c-4.963,0-9,4.037-9,9c0,4.962,4.037,9,9,9c4.962,0,9-4.038,9-9C20,6.037,15.962,2,11,2z M11,18
			c-3.86,0-7-3.14-7-7c0-3.859,3.14-7,7-7c3.859,0,7,3.141,7,7C18,14.86,14.859,18,11,18z M15.834,7.407
			c-0.82-1.101-2.408-1.897-2.408-1.897l-0.399,0.318l-0.52-0.382h0.52l-0.718-0.318L11.789,5l-0.758,0.127L10.552,5.35v0.191
			l-0.759,0.35L9.953,6.4l0.439-0.223L10.672,6.4l0.318,0.127l0.201-0.382L11.07,5.923l0.121-0.159l0.438-0.286h0.199l-0.199,0.318
			v0.287c0.184-0.035,0.372-0.047,0.56-0.063l-0.301,0.606L12.2,7.156l-0.131,1.122l0.199-0.063
			c0.197,0.145,0.353,0.315,0.519,0.478l0.599,0.031l0.359,0.159l-0.159,0.159l-0.359,0.223h-0.52l-0.679-0.159L11.67,9.138
			l-0.26,0.207l-0.738-0.525l-0.519-0.096L9.395,8.788L8.716,8.915c-0.38,0.304-0.757,0.606-1.117,0.922L7.16,10.57l0.199,0.159
			L7,11.111l0.399,0.668c0.339,0.27,0.679,0.541,1.018,0.812l0.499-0.302l0.219,0.175l0.539-0.239l0.18,0.144h0.539l0.31,0.247
			l-0.19,0.438l0.381,0.302l-0.021,0.524l0.28,0.383l-0.2,0.318c-0.02,0.234-0.039,0.467-0.039,0.701
			c0.163,0.317,0.324,0.634,0.479,0.954l0.119,0.511V17h0.279l0.438-0.191h0.519l0.779-0.621l-0.101-0.206l0.52-0.319l-0.379-0.302
			l0.459-0.271l0.439-0.191l0.199-0.158l-0.12-0.351v-0.891l0.359-0.542l0.438-0.35l0.479-0.828v-0.223
			c-0.392,0.035-0.763,0.064-1.157,0.064c-0.254-0.377-0.445-0.753-0.639-1.146l-0.34-0.271l-0.18-0.461l0.12-0.095l0.459,0.365
			l1.378-0.111V9.488l0.419,0.333l0.459-0.047c0.208,0.133,0.415,0.262,0.599,0.414L17,9.95v0
			C16.965,9.696,16.631,8.479,15.834,7.407z"/>
	</g>
</g>
</svg>
