<?xml version="1.0" encoding="UTF-8" standalone="no"?>
<!-- Created with Inkscape (http://www.inkscape.org/) -->

<svg
   xmlns:dc="http://purl.org/dc/elements/1.1/"
   xmlns:cc="http://creativecommons.org/ns#"
   xmlns:rdf="http://www.w3.org/1999/02/22-rdf-syntax-ns#"
   xmlns:svg="http://www.w3.org/2000/svg"
   xmlns="http://www.w3.org/2000/svg"
   xmlns:sodipodi="http://sodipodi.sourceforge.net/DTD/sodipodi-0.dtd"
   xmlns:inkscape="http://www.inkscape.org/namespaces/inkscape"
   width="22"
   height="22"
   id="svg2"
   version="1.1"
   inkscape:version="0.48.3.1 r9886"
   sodipodi:docname="master-scope-graphics.svg">
  <defs
     id="defs4">
    <inkscape:perspective
       id="perspective2447"
       inkscape:persp3d-origin="372.04724 : 350.78739 : 1"
       inkscape:vp_z="744.09448 : 526.18109 : 1"
       inkscape:vp_y="0 : 1000 : 0"
       inkscape:vp_x="0 : 526.18109 : 1"
       sodipodi:type="inkscape:persp3d" />
    <inkscape:perspective
       sodipodi:type="inkscape:persp3d"
       inkscape:vp_x="0 : 0.5 : 1"
       inkscape:vp_y="0 : 1000 : 0"
       inkscape:vp_z="1 : 0.5 : 1"
       inkscape:persp3d-origin="0.5 : 0.33333333 : 1"
       id="perspective2846" />
    <inkscape:perspective
       id="perspective2824"
       inkscape:persp3d-origin="32 : 21.333333 : 1"
       inkscape:vp_z="64 : 32 : 1"
       inkscape:vp_y="0 : 1000 : 0"
       inkscape:vp_x="0 : 32 : 1"
       sodipodi:type="inkscape:persp3d" />
  </defs>
  <sodipodi:namedview
     id="base"
     pagecolor="#888888"
     bordercolor="#666666"
     borderopacity="1.0"
     inkscape:pageopacity="1"
     inkscape:pageshadow="2"
     inkscape:zoom="12.434498"
     inkscape:cx="22.41034"
     inkscape:cy="2.8026854"
     inkscape:document-units="px"
     inkscape:current-layer="layer1"
     showgrid="true"
     inkscape:window-width="1920"
     inkscape:window-height="1029"
     inkscape:window-x="0"
     inkscape:window-y="24"
     inkscape:window-maximized="1"
     inkscape:snap-global="false"
     inkscape:snap-bbox="true"
     inkscape:bbox-paths="true"
     inkscape:snap-bbox-edge-midpoints="true"
     inkscape:bbox-nodes="true"
     inkscape:snap-bbox-midpoints="true"
     inkscape:snap-grids="true">
    <inkscape:grid
       type="xygrid"
       id="grid2985"
       empspacing="8"
       visible="true"
       enabled="true"
       snapvisiblegridlinesonly="true" />
  </sodipodi:namedview>
  <metadata
     id="metadata7">
    <rdf:RDF>
      <cc:Work
         rdf:about="">
        <dc:format>image/svg+xml</dc:format>
        <dc:type
           rdf:resource="http://purl.org/dc/dcmitype/StillImage" />
        <dc:title />
      </cc:Work>
    </rdf:RDF>
  </metadata>
  <g
     inkscape:label="Layer 1"
     inkscape:groupmode="layer"
     id="layer1"
     transform="translate(0,-1030.3622)">
    <path
       style="color:#000000;fill:#ffffff;fill-opacity:1;fill-rule:nonzero;stroke:none;stroke-width:2;marker:none;visibility:visible;display:inline;overflow:visible;enable-background:accumulate"
       d="m 12.09375,1032.3622 c -1.222392,-0.053 -3.030067,0.874 -4.625,2.4688 -2.1265774,2.1266 -3.0440245,4.6435 -2.0625,5.625 l 6.5,6.5 c 0.981496,0.9814 3.498422,0.064 5.625,-2.0625 2.126577,-2.1266 3.043997,-4.6434 2.0625,-5.625 l -6.5,-6.5 c -0.245381,-0.2454 -0.592536,-0.3885 -1,-0.4063 z m -0.3125,0.7813 c 0.306614,-0.023 0.555167,0.024 0.71875,0.1875 0.654331,0.6544 -0.263087,2.6693 -2.0625,4.4687 -0.203553,0.2036 -0.418798,0.3823 -0.625,0.5625 -0.044216,0.041 -0.080186,0.085 -0.125,0.125 -0.200393,0.1784 -0.420409,0.3201 -0.625,0.4688 -0.2279031,0.1655 -0.4397644,0.3078 -0.65625,0.4375 -0.012485,0.01 -0.018834,0.024 -0.03125,0.031 -0.2023906,0.121 -0.4047083,0.2243 -0.59375,0.3125 -0.5590491,0.2842 -0.9375,0.4375 -0.9375,0.4375 0,0 0.1936138,-0.1481 0.25,-0.1875 -0.4928476,0.1297 -0.8952622,0.1047 -1.125,-0.125 -0.6543316,-0.6543 0.2943383,-2.6381 2.09375,-4.4375 1.349558,-1.3495 2.798907,-2.2118 3.71875,-2.2812 z"
       id="rect2987"
       inkscape:connector-curvature="0" />
    <path
       sodipodi:type="arc"
       style="color:#000000;fill:#ffffff;fill-opacity:1;fill-rule:nonzero;stroke:none;stroke-width:2;marker:none;visibility:visible;display:inline;overflow:visible;enable-background:accumulate"
       id="path3003"
       sodipodi:cx="7"
       sodipodi:cy="20"
       sodipodi:rx="4"
       sodipodi:ry="1"
       d="m 11,20 c 0,0.552285 -1.790861,1 -4,1 -2.209139,0 -4,-0.447715 -4,-1 0,-0.552285 1.790861,-1 4,-1 2.209139,0 4,0.447715 4,1 z"
       transform="matrix(1.125,0,0,1,-1.375,1029.3622)" />
    <path
       style="color:#000000;fill:#ffffff;fill-opacity:1;fill-rule:nonzero;stroke:none;stroke-width:2;marker:none;visibility:visible;display:inline;overflow:visible;enable-background:accumulate"
       d="m 6,1038.3622 c -2,0 -1.90625,2.3991 -1.90625,4 0,1.005 0.21875,3 0.21875,3 0.2466528,2 1.1375324,2.0108 1.375,0 l 0.125,-3 c 0,-3 3.1875,-2 3.1875,-2 l 3,0 -1,-2 -1.1875,0 c -1.332382,1.2481 -2.96875,1.8125 -2.96875,1.8125 0,0 1.5511214,-1.1363 1.469963,-1.4779 C 8.292125,1038.0276 6,1038.3622 6,1038.3622 z"
       id="path3005"
       inkscape:connector-curvature="0"
       sodipodi:nodetypes="sscccccccccs" />
  </g>
</svg>
