<?xml version="1.0" encoding="utf-8"?>
<!-- Generator: Adobe Illustrator 15.0.0, SVG Export Plug-In . SVG Version: 6.00 Build 0)  -->
<!DOCTYPE svg PUBLIC "-//W3C//DTD SVG 1.1//EN" "http://www.w3.org/Graphics/SVG/1.1/DTD/svg11.dtd">
<svg version="1.1" id="Layer_1" xmlns="http://www.w3.org/2000/svg" xmlns:xlink="http://www.w3.org/1999/xlink" x="0px" y="0px"
	 width="22px" height="22px" viewBox="0 0 22 22" enable-background="new 0 0 22 22" xml:space="preserve">
<path fill="#FFFFFF" d="M15,12.5c0,2.21-1.79,4-4,4s-4-1.79-4-4s1.79-4,4-4S15,10.29,15,12.5z"/>
<path fill="#FFFFFF" d="M19,6.5h-3c-0.55,0-1.162-0.433-1.336-0.956l-0.368-1.103C14.122,3.92,13.55,3.5,13,3.5H9
	c-0.55,0-1.162,0.42-1.337,0.942L7.296,5.544C7.122,6.067,6.55,6.5,6,6.5H3c-0.55,0-1,0.45-1,1v10c0,0.551,0.45,1,1,1h16
	c0.55,0,1-0.449,1-1v-10C20,6.95,19.55,6.5,19,6.5z M11,17.5c-2.762,0-5-2.238-5-5c0-2.763,2.238-5,5-5c2.761,0,5,2.237,5,5
	C16,15.262,13.761,17.5,11,17.5z"/>
</svg>
