<?xml version="1.0" encoding="UTF-8" standalone="no"?>
<!-- Created with Inkscape (http://www.inkscape.org/) -->

<svg
   xmlns:dc="http://purl.org/dc/elements/1.1/"
   xmlns:cc="http://creativecommons.org/ns#"
   xmlns:rdf="http://www.w3.org/1999/02/22-rdf-syntax-ns#"
   xmlns:svg="http://www.w3.org/2000/svg"
   xmlns="http://www.w3.org/2000/svg"
   xmlns:sodipodi="http://sodipodi.sourceforge.net/DTD/sodipodi-0.dtd"
   xmlns:inkscape="http://www.inkscape.org/namespaces/inkscape"
   width="22"
   height="22"
   id="svg2"
   version="1.1"
   inkscape:version="0.48.3.1 r9886"
   sodipodi:docname="master-scope-help.svg">
  <defs
     id="defs4">
    <inkscape:perspective
       id="perspective2447"
       inkscape:persp3d-origin="372.04724 : 350.78739 : 1"
       inkscape:vp_z="744.09448 : 526.18109 : 1"
       inkscape:vp_y="0 : 1000 : 0"
       inkscape:vp_x="0 : 526.18109 : 1"
       sodipodi:type="inkscape:persp3d" />
    <inkscape:perspective
       sodipodi:type="inkscape:persp3d"
       inkscape:vp_x="0 : 0.5 : 1"
       inkscape:vp_y="0 : 1000 : 0"
       inkscape:vp_z="1 : 0.5 : 1"
       inkscape:persp3d-origin="0.5 : 0.33333333 : 1"
       id="perspective2846" />
    <inkscape:perspective
       id="perspective2824"
       inkscape:persp3d-origin="32 : 21.333333 : 1"
       inkscape:vp_z="64 : 32 : 1"
       inkscape:vp_y="0 : 1000 : 0"
       inkscape:vp_x="0 : 32 : 1"
       sodipodi:type="inkscape:persp3d" />
  </defs>
  <sodipodi:namedview
     id="base"
     pagecolor="#888888"
     bordercolor="#666666"
     borderopacity="1.0"
     inkscape:pageopacity="1"
     inkscape:pageshadow="2"
     inkscape:zoom="24.286128"
     inkscape:cx="20.366001"
     inkscape:cy="10.699523"
     inkscape:document-units="px"
     inkscape:current-layer="layer1"
     showgrid="true"
     inkscape:window-width="1920"
     inkscape:window-height="1029"
     inkscape:window-x="0"
     inkscape:window-y="24"
     inkscape:window-maximized="1"
     inkscape:snap-global="false"
     inkscape:snap-bbox="true"
     inkscape:bbox-paths="true"
     inkscape:snap-bbox-edge-midpoints="true"
     inkscape:bbox-nodes="true"
     inkscape:snap-bbox-midpoints="true"
     inkscape:snap-grids="true">
    <inkscape:grid
       type="xygrid"
       id="grid2985"
       empspacing="8"
       visible="true"
       enabled="true"
       snapvisiblegridlinesonly="true" />
  </sodipodi:namedview>
  <metadata
     id="metadata7">
    <rdf:RDF>
      <cc:Work
         rdf:about="">
        <dc:format>image/svg+xml</dc:format>
        <dc:type
           rdf:resource="http://purl.org/dc/dcmitype/StillImage" />
        <dc:title />
      </cc:Work>
    </rdf:RDF>
  </metadata>
  <g
     inkscape:label="Layer 1"
     inkscape:groupmode="layer"
     id="layer1"
     transform="translate(0,-1030.3622)">
    <path
       style="color:#000000;fill:#ffffff;fill-opacity:1;fill-rule:nonzero;stroke:none;stroke-width:1;marker:none;visibility:visible;display:inline;overflow:visible;enable-background:accumulate"
       d="m 11,1032.3622 c -4.9705627,0 -9,4.0294 -9,9 0,4.9706 4.0294373,9 9,9 4.970563,0 9,-4.0294 9,-9 0,-4.9706 -4.029437,-9 -9,-9 z m -0.28125,2.8438 c 0.338746,0 0.696623,0.011 1.03125,0.062 0.977187,0.1638 1.962597,0.7682 2.28125,1.75 0.253312,0.7536 0.237489,1.6213 -0.1875,2.3125 -0.597242,1.1076 -1.830334,1.7117 -2.34375,2.875 -0.14142,0.3621 -0.349826,0.7739 -0.3125,1.1562 l -1.9375,0 c -0.146702,-0.732 0.173065,-1.4924 0.59375,-2.125 0.521044,-0.8972 1.655999,-1.4739 2.125,-2.4062 0.271387,-0.5582 0.143034,-1.3396 -0.40625,-1.6875 -0.281567,-0.1898 -0.635766,-0.218 -0.96875,-0.2188 -0.778759,0 -1.539282,0.2202 -2.21875,0.5938 -0.1883657,-0.5152 -0.3741343,-1.0473 -0.5625,-1.5625 0.8917771,-0.4842 1.890012,-0.7351 2.90625,-0.75 z M 10.5,1044.6435 c 0.354163,0 0.666662,0.1042 0.90625,0.3437 0.239578,0.2292 0.343746,0.5418 0.34375,0.9063 -4e-6,0.3645 -0.104172,0.6459 -0.34375,0.875 -0.239588,0.2291 -0.552087,0.3437 -0.90625,0.3437 -0.343753,0 -0.625004,-0.1146 -0.875,-0.3437 -0.239586,-0.2291 -0.375002,-0.5105 -0.375,-0.875 -2e-6,-0.3645 0.135414,-0.6771 0.375,-0.9063 0.249996,-0.2395 0.531247,-0.3437 0.875,-0.3437 z"
       id="path3025"
       inkscape:connector-curvature="0" />
  </g>
</svg>
