<?xml version="1.0" encoding="utf-8"?>
<!-- Generator: Adobe Illustrator 15.0.0, SVG Export Plug-In . SVG Version: 6.00 Build 0)  -->
<!DOCTYPE svg PUBLIC "-//W3C//DTD SVG 1.1//EN" "http://www.w3.org/Graphics/SVG/1.1/DTD/svg11.dtd">
<svg version="1.1" id="Layer_1" xmlns="http://www.w3.org/2000/svg" xmlns:xlink="http://www.w3.org/1999/xlink" x="0px" y="0px"
	 width="22px" height="22px" viewBox="0 0 22 22" enable-background="new 0 0 22 22" xml:space="preserve">
<path fill="#FFFFFF" d="M11,2c-4.971,0-9,4.029-9,9c0,4.971,4.029,9,9,9c4.971,0,9-4.029,9-9C20,6.029,15.971,2,11,2z M16.375,7.794
	c-0.296,0.559-1.025,0.79-1.631,0.516l-2.149-0.872v7.098c0.003,0.048,0.004,0.095,0.004,0.145c0,1.58-1.671,2.819-3.438,2.819
	c-2.052,0-3.661-1.239-3.661-2.819c0-1.582,1.609-2.82,3.661-2.82c0.428,0,1.059,0.086,1.438,0.185V5.628
	c0-0.389,0.218-0.751,0.575-0.957c0.358-0.207,0.805-0.228,1.183-0.056l3.462,1.561C16.425,6.468,16.672,7.235,16.375,7.794z"/>
</svg>
