<?xml version="1.0" encoding="UTF-8" standalone="no"?>
<!-- Generator: Adobe Illustrator 14.0.0, SVG Export Plug-In . SVG Version: 6.00 Build 43363)  -->

<svg
   xmlns:dc="http://purl.org/dc/elements/1.1/"
   xmlns:cc="http://creativecommons.org/ns#"
   xmlns:rdf="http://www.w3.org/1999/02/22-rdf-syntax-ns#"
   xmlns:svg="http://www.w3.org/2000/svg"
   xmlns="http://www.w3.org/2000/svg"
   xmlns:sodipodi="http://sodipodi.sourceforge.net/DTD/sodipodi-0.dtd"
   xmlns:inkscape="http://www.inkscape.org/namespaces/inkscape"
   version="1.1"
   id="Layer_1"
   x="0px"
   y="0px"
   width="22px"
   height="22px"
   viewBox="0 0 22 22"
   enable-background="new 0 0 22 22"
   xml:space="preserve"
   inkscape:version="0.48.2 r9819"
   sodipodi:docname="group-songs.svg"><metadata
   id="metadata13"><rdf:RDF><cc:Work
       rdf:about=""><dc:format>image/svg+xml</dc:format><dc:type
         rdf:resource="http://purl.org/dc/dcmitype/StillImage" /></cc:Work></rdf:RDF></metadata><defs
   id="defs11" /><sodipodi:namedview
   pagecolor="#ffffff"
   bordercolor="#666666"
   borderopacity="1"
   objecttolerance="10"
   gridtolerance="10"
   guidetolerance="10"
   inkscape:pageopacity="0"
   inkscape:pageshadow="2"
   inkscape:window-width="640"
   inkscape:window-height="480"
   id="namedview9"
   showgrid="false"
   inkscape:zoom="10.727273"
   inkscape:cx="11"
   inkscape:cy="9.578025"
   inkscape:window-x="7"
   inkscape:window-y="25"
   inkscape:window-maximized="0"
   inkscape:current-layer="Layer_1" />
<g
   id="g3"
   style="fill:#ffffff">
	<path
   fill="#FFFFFF"
   d="M11,2c-4.971,0-9,4.029-9,9s4.029,9,9,9s9-4.029,9-9S15.971,2,11,2z M11,4c3.866,0,7,3.135,7,7   c0,3.867-3.134,7-7,7s-7-3.133-7-7C4,7.135,7.134,4,11,4z"
   id="path5"
   style="fill:#ffffff" />
	<path
   fill="#FFFFFF"
   d="M15.143,12.804L15.143,12.804v-6.38c0-0.275-0.205-0.462-0.457-0.417l-4.594,0.835   C9.84,6.887,9.635,7.149,9.635,7.425v5.135l0.008,0.013c-0.492-0.15-1.108-0.065-1.671,0.289c-0.938,0.588-1.369,1.69-0.963,2.456   c0.406,0.766,1.497,0.909,2.434,0.318c0.666-0.418,1.068-1.092,1.106-1.722l0.011,0.016V8.576c0-0.274,0.157-0.538,0.409-0.582   l2.791-0.503c0.252-0.045,0.457,0.143,0.457,0.418v3.649l0.01,0.014c-0.492-0.15-1.109-0.065-1.672,0.289   c-0.938,0.588-1.369,1.689-0.963,2.455c0.406,0.766,1.496,0.91,2.434,0.318c0.665-0.418,1.068-1.091,1.106-1.721l0.011,0.016   V12.804z"
   id="path7"
   style="fill:#ffffff" />
</g>
</svg>