<?xml version="1.0" encoding="UTF-8" standalone="no"?>
<!-- Created with Inkscape (http://www.inkscape.org/) -->

<svg
   xmlns:svg="http://www.w3.org/2000/svg"
   xmlns="http://www.w3.org/2000/svg"
   version="1.0"
   width="22"
   height="22"
   id="svg3320">
  <defs
     id="defs3322" />
  <path
     d="m 10,6 0,5.5 3.6875,3.375 L 14.375,14.1875 11,11 11,6 10,6 z"
     id="rect3740"
     style="color:#000000;fill:#ffffff;fill-opacity:1;fill-rule:nonzero;stroke:none;stroke-width:0.99999988;marker:none;visibility:visible;display:inline;overflow:visible;enable-background:accumulate" />
  <path
     d="m 11,2 c -4.9705629,0 -9,4.0294371 -9,9 0,4.970563 4.0294371,9 9,9 4.970563,0 9,-4.029437 9,-9 0,-4.9705629 -4.029437,-9 -9,-9 z m 0,2 c 3.865993,0 7,3.1340067 7,7 0,3.865993 -3.134007,7 -7,7 C 7.1340067,18 4,14.865993 4,11 4,7.1340067 7.1340067,4 11,4 z"
     id="path2922-6"
     style="color:#000000;fill:#ffffff;fill-opacity:1;fill-rule:nonzero;stroke:none;stroke-width:0.84323651;marker:none;visibility:visible;display:inline;overflow:visible;enable-background:accumulate" />
</svg>
