<?xml version="1.0" encoding="utf-8"?>
<!-- Generator: Adobe Illustrator 15.0.0, SVG Export Plug-In . SVG Version: 6.00 Build 0)  -->
<!DOCTYPE svg PUBLIC "-//W3C//DTD SVG 1.1//EN" "http://www.w3.org/Graphics/SVG/1.1/DTD/svg11.dtd">
<svg version="1.1" id="Layer_1" xmlns="http://www.w3.org/2000/svg" xmlns:xlink="http://www.w3.org/1999/xlink" x="0px" y="0px"
	 width="22px" height="22px" viewBox="0 0 22 22" enable-background="new 0 0 22 22" xml:space="preserve">
<path fill="#FFFFFF" d="M19,8h-2.73C15.664,6.162,13.93,2,11,2C8.07,2,6.336,6.162,5.731,8H3C2.447,8,2,8.447,2,9v10
	c0,0.553,0.447,1,1,1h16c0.553,0,1-0.447,1-1V9C20,8.447,19.553,8,19,8z M11,2.984c1.954,0,3.498,2.938,4.211,5.016H6.789
	C7.501,5.922,9.046,2.984,11,2.984z M6,11c-0.553,0-1-0.447-1-1s0.447-1,1-1s1,0.447,1,1S6.553,11,6,11z M16,11
	c-0.553,0-1-0.447-1-1s0.447-1,1-1s1,0.447,1,1S16.553,11,16,11z"/>
</svg>
