<?xml version="1.0" encoding="utf-8"?>
<!-- Generator: Adobe Illustrator 15.0.0, SVG Export Plug-In . SVG Version: 6.00 Build 0)  -->
<!DOCTYPE svg PUBLIC "-//W3C//DTD SVG 1.1//EN" "http://www.w3.org/Graphics/SVG/1.1/DTD/svg11.dtd">
<svg version="1.1" id="Layer_1" xmlns="http://www.w3.org/2000/svg" xmlns:xlink="http://www.w3.org/1999/xlink" x="0px" y="0px"
	 width="22px" height="22px" viewBox="0 0 22 22" enable-background="new 0 0 22 22" xml:space="preserve">
<g>
	<g>
		<path fill="#FFFFFF" d="M11,2c-4.971,0-9,4.029-9,9s4.029,9,9,9s9-4.029,9-9S15.971,2,11,2z M11,15c-2.21,0-4-1.791-4-4
			s1.79-4,4-4s4,1.791,4,4S13.21,15,11,15z M11,8c-1.656,0-3,1.343-3,3c0,1.657,1.344,3,3,3c1.656,0,3-1.343,3-3
			C14,9.343,12.656,8,11,8z M11,13c-1.105,0-2-0.896-2-2c0-1.105,0.895-2,2-2c1.104,0,2,0.895,2,2C13,12.104,12.104,13,11,13z"/>
	</g>
</g>
</svg>
