<?xml version="1.0" encoding="UTF-8" standalone="no"?>
<!-- Created with Inkscape (http://www.inkscape.org/) -->

<svg
   xmlns:dc="http://purl.org/dc/elements/1.1/"
   xmlns:cc="http://creativecommons.org/ns#"
   xmlns:rdf="http://www.w3.org/1999/02/22-rdf-syntax-ns#"
   xmlns:svg="http://www.w3.org/2000/svg"
   xmlns="http://www.w3.org/2000/svg"
   xmlns:sodipodi="http://sodipodi.sourceforge.net/DTD/sodipodi-0.dtd"
   xmlns:inkscape="http://www.inkscape.org/namespaces/inkscape"
   version="1.0"
   width="22"
   height="22"
   id="svg3320"
   inkscape:version="0.47 r22583"
   sodipodi:docname="available.svg">
  <metadata
     id="metadata18">
    <rdf:RDF>
      <cc:Work
         rdf:about="">
        <dc:format>image/svg+xml</dc:format>
        <dc:type
           rdf:resource="http://purl.org/dc/dcmitype/StillImage" />
        <dc:title></dc:title>
      </cc:Work>
    </rdf:RDF>
  </metadata>
  <sodipodi:namedview
     pagecolor="#6f6f6f"
     bordercolor="#666666"
     borderopacity="1"
     objecttolerance="10"
     gridtolerance="10"
     guidetolerance="10"
     inkscape:pageopacity="1"
     inkscape:pageshadow="2"
     inkscape:window-width="1280"
     inkscape:window-height="753"
     id="namedview16"
     showgrid="false"
     showborder="false"
     inkscape:zoom="24.727273"
     inkscape:cx="11"
     inkscape:cy="11"
     inkscape:window-x="0"
     inkscape:window-y="24"
     inkscape:window-maximized="1"
     inkscape:current-layer="svg3320">
    <inkscape:grid
       type="xygrid"
       id="grid2828"
       empspacing="5"
       visible="true"
       enabled="true"
       snapvisiblegridlinesonly="true" />
  </sodipodi:namedview>
  <defs
     id="defs3322" />
  <path
     d="M 0,0 A 0,0 0 1 1 0,0 0,0 0 1 1 0,0 z"
     id="path2920"
     style="color:#000000;fill:#ffffff;fill-opacity:1;fill-rule:nonzero;stroke:#ffffff;stroke-width:0.99999988;stroke-linecap:butt;stroke-linejoin:miter;stroke-miterlimit:4;stroke-opacity:1;stroke-dasharray:none;stroke-dashoffset:0;marker:none;visibility:visible;display:inline;overflow:visible;enable-background:accumulate" />
  <path
     style="color:#000000;fill:#ffffff;fill-opacity:1;fill-rule:nonzero;stroke:none;stroke-width:0.99999988;marker:none;visibility:visible;display:inline;overflow:visible;enable-background:accumulate"
     d="M 11.9375 2.0625 L 10.15625 4.125 L 7.96875 2.53125 L 7.28125 5.1875 L 4.59375 4.6875 L 5.125 7.375 L 2.46875 8.09375 L 4.125 10.28125 L 2.0625 12.09375 L 4.5 13.34375 L 3.40625 15.84375 L 6.15625 15.9375 L 6.28125 18.65625 L 8.78125 17.53125 L 10.0625 19.9375 L 11.84375 17.875 L 14.03125 19.46875 L 14.71875 16.8125 L 17.40625 17.3125 L 16.875 14.625 L 19.53125 13.90625 L 17.875 11.71875 L 19.9375 9.90625 L 17.5 8.65625 L 18.59375 6.15625 L 15.84375 6.0625 L 15.71875 3.34375 L 13.21875 4.46875 L 11.9375 2.0625 z M 11 6 C 11.554 6 12 6.446 12 7 L 12 12 C 12 12.554 11.554 13 11 13 C 10.446 13 10 12.554 10 12 L 10 7 C 10 6.446 10.446 6 11 6 z M 11 14 C 11.554 14 12 14.446 12 15 C 12 15.554 11.554 16 11 16 C 10.446 16 10 15.554 10 15 C 10 14.446 10.446 14 11 14 z "
     id="path2826" />
</svg>
