<?xml version="1.0" encoding="UTF-8" standalone="no"?>
<!-- Created with Inkscape (http://www.inkscape.org/) -->

<svg
   xmlns:dc="http://purl.org/dc/elements/1.1/"
   xmlns:cc="http://creativecommons.org/ns#"
   xmlns:rdf="http://www.w3.org/1999/02/22-rdf-syntax-ns#"
   xmlns:svg="http://www.w3.org/2000/svg"
   xmlns="http://www.w3.org/2000/svg"
   xmlns:sodipodi="http://sodipodi.sourceforge.net/DTD/sodipodi-0.dtd"
   xmlns:inkscape="http://www.inkscape.org/namespaces/inkscape"
   width="24"
   height="24"
   id="svg2"
   version="1.1"
   inkscape:version="0.48.3.1 r9886"
   sodipodi:docname="service-grooveshark.svg">
  <defs
     id="defs4">
    <inkscape:perspective
       id="perspective2447"
       inkscape:persp3d-origin="372.04724 : 350.78739 : 1"
       inkscape:vp_z="744.09448 : 526.18109 : 1"
       inkscape:vp_y="0 : 1000 : 0"
       inkscape:vp_x="0 : 526.18109 : 1"
       sodipodi:type="inkscape:persp3d" />
  </defs>
  <sodipodi:namedview
     id="base"
     pagecolor="#888888"
     bordercolor="#666666"
     borderopacity="1.0"
     inkscape:pageopacity="1"
     inkscape:pageshadow="2"
     inkscape:zoom="7.9580786"
     inkscape:cx="9.9961314"
     inkscape:cy="17.812088"
     inkscape:document-units="px"
     inkscape:current-layer="layer1"
     showgrid="true"
     inkscape:window-width="1920"
     inkscape:window-height="1029"
     inkscape:window-x="0"
     inkscape:window-y="24"
     inkscape:window-maximized="1">
    <inkscape:grid
       type="xygrid"
       id="grid2985"
       empspacing="8"
       visible="true"
       enabled="true"
       snapvisiblegridlinesonly="true" />
  </sodipodi:namedview>
  <metadata
     id="metadata7">
    <rdf:RDF>
      <cc:Work
         rdf:about="">
        <dc:format>image/svg+xml</dc:format>
        <dc:type
           rdf:resource="http://purl.org/dc/dcmitype/StillImage" />
        <dc:title></dc:title>
      </cc:Work>
    </rdf:RDF>
  </metadata>
  <g
     inkscape:label="Layer 1"
     inkscape:groupmode="layer"
     id="layer1"
     transform="translate(0,-1028.3622)">
    <path
       style="fill:#ffffff"
       d="M 12 3 C 7.0294374 3 3 7.0294373 3 12 C 3 16.970563 7.0294374 21 12 21 C 16.970563 21 21 16.970563 21 12 C 21 7.0294373 16.970563 3 12 3 z M 11.9375 4.90625 C 13.116146 4.90045 13.390356 4.9345 14 5.125 C 16.008057 5.752 17.505686 7.04415 18.40625 8.90625 C 18.92491 9.97885 19.10972 10.84595 19.0625 12.09375 C 19.019656 13.22595 18.890241 13.60955 18.4375 13.84375 C 18.138144 13.99905 17.9343 14.01905 17.5625 13.90625 C 16.787889 13.67115 16.300117 13.1996 15.15625 11.6875 C 13.963988 10.1116 12.430179 8.56725 11.4375 7.90625 C 10.718153 7.42745 9.6243706 6.90665 9.03125 6.78125 C 8.7295216 6.71745 8.694472 6.7277 8.75 6.9375 C 8.7823257 7.0597 8.84153 7.6551 8.875 8.25 C 8.9749317 10.0267 8.6828262 11.3042 7.96875 12.25 C 7.1790532 13.2962 5.9205061 13.7925 5.3125 13.3125 C 4.8587061 12.9543 4.7541054 12.0657 5 10.6875 C 5.2560783 9.2521 5.8946089 8.08595 7 6.96875 C 7.8573136 6.10225 8.7114337 5.5638 9.8125 5.1875 C 10.491045 4.9557 10.707639 4.91625 11.9375 4.90625 z "
       transform="translate(0,1028.3622)"
       id="path2451" />
  </g>
</svg>
