<?xml version="1.0" encoding="utf-8"?>
<!-- Generator: Adobe Illustrator 15.0.0, SVG Export Plug-In . SVG Version: 6.00 Build 0)  -->
<!DOCTYPE svg PUBLIC "-//W3C//DTD SVG 1.1//EN" "http://www.w3.org/Graphics/SVG/1.1/DTD/svg11.dtd">
<svg version="1.1" id="Layer_1" xmlns="http://www.w3.org/2000/svg" xmlns:xlink="http://www.w3.org/1999/xlink" x="0px" y="0px"
	 width="24px" height="24px" viewBox="0 0 24 24" enable-background="new 0 0 24 24" xml:space="preserve">
<path fill="#FFFFFF" d="M19.972,3H4.029C3.463,3,3,3.463,3,4.029v15.943C3,20.537,3.463,21,4.029,21h15.943
	C20.537,21,21,20.537,21,19.972V4.029C21,3.463,20.537,3,19.972,3z M18.278,13.097h-2.474v6.617h-2.519v-6.617h-1.75v-2.382h1.75
	c0,0,0-0.977,0-2.035c0-1.599,1.033-3.067,3.415-3.067c0.964,0,1.677,0.092,1.677,0.092l-0.056,2.225c0,0-0.728-0.007-1.521-0.007
	c-0.859,0-0.997,0.396-0.997,1.053c0,0.097,0,0.119,0,0.109c0,0.18,0,0.621,0,1.63h2.586L18.278,13.097z"/>
</svg>
