<?xml version="1.0" encoding="UTF-8" standalone="no"?>
<!-- Created with Inkscape (http://www.inkscape.org/) -->

<svg
   xmlns:dc="http://purl.org/dc/elements/1.1/"
   xmlns:cc="http://creativecommons.org/ns#"
   xmlns:rdf="http://www.w3.org/1999/02/22-rdf-syntax-ns#"
   xmlns:svg="http://www.w3.org/2000/svg"
   xmlns="http://www.w3.org/2000/svg"
   xmlns:xlink="http://www.w3.org/1999/xlink"
   xmlns:sodipodi="http://sodipodi.sourceforge.net/DTD/sodipodi-0.dtd"
   xmlns:inkscape="http://www.inkscape.org/namespaces/inkscape"
   width="24"
   height="24"
   id="svg2"
   version="1.1"
   inkscape:version="0.48+devel r12322"
   sodipodi:docname="service-skimlinks.svg">
  <defs
     id="defs4">
    <inkscape:perspective
       id="perspective2447"
       inkscape:persp3d-origin="372.04724 : 350.78739 : 1"
       inkscape:vp_z="744.09448 : 526.18109 : 1"
       inkscape:vp_y="0 : 1000 : 0"
       inkscape:vp_x="0 : 526.18109 : 1"
       sodipodi:type="inkscape:persp3d" />
    <inkscape:perspective
       sodipodi:type="inkscape:persp3d"
       inkscape:vp_x="0 : 0.5 : 1"
       inkscape:vp_y="0 : 1000 : 0"
       inkscape:vp_z="1 : 0.5 : 1"
       inkscape:persp3d-origin="0.5 : 0.33333333 : 1"
       id="perspective2846" />
    <inkscape:perspective
       id="perspective2824"
       inkscape:persp3d-origin="32 : 21.333333 : 1"
       inkscape:vp_z="64 : 32 : 1"
       inkscape:vp_y="0 : 1000 : 0"
       inkscape:vp_x="0 : 32 : 1"
       sodipodi:type="inkscape:persp3d" />
    <linearGradient
       x1="426.90356"
       y1="422.19724"
       x2="304.28552"
       y2="306.99435"
       id="linearGradient10228"
       xlink:href="#linearGradient10230"
       gradientUnits="userSpaceOnUse" />
    <linearGradient
       id="linearGradient10230">
      <stop
         style="stop-color: rgb(0, 0, 0); stop-opacity: 1;"
         offset="0"
         id="stop10232" />
      <stop
         style="stop-color: rgb(95, 95, 95); stop-opacity: 1;"
         offset="1"
         id="stop10234" />
    </linearGradient>
    <linearGradient
       gradientTransform="matrix(0.086818,0,0,0.086818,-21.445005,1008.71)"
       y2="306.99435"
       x2="304.28552"
       y1="422.19724"
       x1="426.90356"
       gradientUnits="userSpaceOnUse"
       id="linearGradient3047"
       xlink:href="#linearGradient10230"
       inkscape:collect="always" />
    <clipPath
       id="clipPath856"
       clipPathUnits="userSpaceOnUse">
      <path
         id="path858"
         d="m 4578.22,828.234 c -4.84,-12.656 -14.55,-16.546 -26.19,-12.656 -19.39,7.793 -48.5,18.496 -78.57,18.496 -39.77,0 -62.08,-19.469 -62.08,-50.625 0,-36.023 36.86,-51.59 79.54,-73.984 59.18,-31.16 118.35,-61.336 118.35,-147.985 0,-78.859 -55.3,-137.281 -154.24,-137.281 -56.27,0 -105.74,14.61 -132.9,27.27 -12.61,5.84 -15.52,15.57 -11.64,27.261 l 10.66,35.04 c 3.89,13.64 14.56,19.468 26.2,13.64 28.14,-12.66 66.94,-26.281 107.68,-26.281 44.62,0 64.99,19.461 64.99,55.48 0,41.871 -34.92,56.469 -80.52,79.84 -54.31,28.231 -115.43,59.383 -115.43,137.266 0,82.754 56.26,130.465 149.39,130.465 46.56,0 74.69,-6.821 103.8,-20.446 10.67,-4.875 16.49,-15.578 11.64,-27.265 L 4578.22,828.234 4578.22,828.234 z m -323.99,-399.164 -65,0 c -11.63,0 -19.4,7.789 -26.19,18.5 l -143.57,235.606 0,-233.656 c 0,-11.692 -9.69,-20.45 -21.34,-20.45 l -43.65,0 c -11.65,0 -22.31,8.758 -22.31,20.45 l 0,648.39 c 0,12.66 10.66,20.45 22.31,20.45 l 43.65,0 c 11.65,0 21.34,-7.79 21.34,-20.45 l 0,-395.262 117.39,179.137 c 5.81,8.766 14.54,16.555 28.12,16.555 l 60.15,0 c 13.57,0 18.42,-13.641 10.67,-24.344 l -130,-177.195 159.09,-243.391 c 6.8,-10.699 2.91,-24.34 -10.66,-24.34 L 4254.23,429.07 z m -460.77,0 -44.63,0 c -11.63,0 -21.34,8.758 -21.34,20.45 l 0,314.457 c 0,45.761 -16.49,65.234 -56.26,65.234 -58.2,0 -103.8,-49.652 -103.8,-114.883 l 0,-264.808 c 0,-11.692 -9.7,-20.45 -21.35,-20.45 l -44.61,0 c -11.65,0 -22.31,8.758 -22.31,20.45 l 0,428.363 c 0,12.668 10.66,20.457 22.31,20.457 l 29.1,0 c 13.58,0 20.37,-5.852 23.28,-17.531 l 9.69,-42.836 c 40.75,46.726 81.49,66.207 131.94,66.207 72.75,0 119.31,-48.688 119.31,-121.696 l 0,-332.964 c 0,-11.692 -9.7,-20.45 -21.33,-20.45 L 3793.46,429.07 z m -496.66,469.27 43.65,0 c 11.65,0 21.34,-8.766 21.34,-20.457 l 0,-428.363 c 0,-11.692 -9.69,-20.45 -21.34,-20.45 l -43.65,0 c -11.64,0 -22.31,8.758 -22.31,20.45 l 0,428.363 c 0,11.691 10.67,20.457 22.31,20.457 L 3296.8,898.34 z m 21.33,103.19 c -32.97,0 -59.17,28.23 -59.17,61.34 0,33.09 26.2,60.36 59.17,60.36 32.99,0 60.15,-27.27 60.15,-60.36 0,-33.11 -27.16,-61.34 -60.15,-61.34 L 3318.13,1001.53 z m -182.35,-572.46 -43.65,0 c -11.64,0 -22.32,8.758 -22.32,20.45 l 0,648.39 c 0,11.68 10.68,20.45 22.32,20.45 l 43.65,0 c 11.64,0 21.35,-8.77 21.35,-20.45 l 0,-648.39 c 0,-11.692 -9.71,-20.45 -21.35,-20.45 L 3135.78,429.07 z m -205.64,0 -44.62,0 c -11.64,0 -21.34,8.758 -21.34,20.45 l 0,314.457 c 0,45.761 -16.49,65.234 -56.27,65.234 -58.2,0 -103.79,-49.652 -103.79,-114.883 l 0,-264.808 c 0,-11.692 -9.71,-20.45 -21.34,-20.45 l -44.63,0 c -11.64,0 -21.33,8.758 -21.33,20.45 l 0,314.457 c 0,45.761 -16.5,65.234 -56.27,65.234 -58.21,0 -103.8,-49.652 -103.8,-114.883 l 0,-264.808 c 0,-11.692 -9.7,-20.45 -21.34,-20.45 l -44.62,0 c -11.64,0 -22.31,8.758 -22.31,20.45 l 0,428.363 c 0,12.668 10.67,20.457 22.31,20.457 l 29.1,0 c 13.58,0 20.37,-5.852 23.28,-17.531 l 9.7,-42.836 c 38.8,43.812 74.7,66.207 131.93,66.207 57.24,0 94.1,-26.297 110.59,-71.071 34.91,40.887 74.69,71.071 137.74,71.071 72.76,0 119.32,-48.688 119.32,-121.696 l 0,-332.964 c 0,-11.692 -10.66,-20.45 -22.31,-20.45 L 2930.14,429.07 z m -744.02,469.27 43.66,0 c 11.63,0 21.33,-8.766 21.33,-20.457 l 0,-428.363 c 0,-11.692 -9.7,-20.45 -21.33,-20.45 l -43.66,0 c -11.64,0 -22.31,8.758 -22.31,20.45 l 0,428.363 c 0,11.691 10.67,20.457 22.31,20.457 L 2186.12,898.34 z m 21.34,103.19 c -32.98,0 -59.17,28.23 -59.17,61.34 0,33.09 26.19,60.36 59.17,60.36 32.98,0 60.15,-27.27 60.15,-60.36 0,-33.11 -27.17,-61.34 -60.15,-61.34 L 2207.46,1001.53 z m -99.91,-572.46 -65,0 c -11.64,0 -19.4,7.789 -26.18,18.5 l -143.58,235.606 0,-233.656 c 0,-11.692 -9.7,-20.45 -21.34,-20.45 l -43.65,0 c -11.64,0 -22.32,8.758 -22.32,20.45 l 0,648.39 c 0,12.66 10.68,20.45 22.32,20.45 l 43.65,0 c 11.64,0 21.34,-7.79 21.34,-20.45 l 0,-395.262 117.38,179.137 c 5.82,8.766 14.55,16.555 28.13,16.555 l 60.14,0 c 13.58,0 18.44,-13.641 10.67,-24.344 L 1959.13,696.801 2118.22,453.41 c 6.78,-10.699 2.91,-24.34 -10.67,-24.34 L 2107.55,429.07 z m -431.68,399.164 c -4.85,-12.656 -14.55,-16.546 -26.2,-12.656 -19.39,7.793 -48.5,18.496 -78.57,18.496 -39.78,0 -62.08,-19.469 -62.08,-50.625 0,-36.023 36.86,-51.59 79.54,-73.984 59.17,-31.16 118.35,-61.336 118.35,-147.985 0,-78.859 -55.29,-137.281 -154.24,-137.281 -56.26,0 -105.74,14.61 -132.9,27.27 -12.61,5.84 -15.52,15.57 -11.64,27.261 l 10.67,35.04 c 3.89,13.64 14.55,19.468 26.19,13.64 28.13,-12.66 66.94,-26.281 107.68,-26.281 44.62,0 65,19.461 65,55.48 0,41.871 -34.93,56.469 -80.52,79.84 -54.33,28.231 -115.44,59.383 -115.44,137.266 0,82.754 56.26,130.465 149.39,130.465 46.57,0 74.7,-6.821 103.8,-20.446 10.67,-4.875 16.49,-15.578 11.64,-27.265 L 1675.87,828.234 1675.87,828.234 Z" />
    </clipPath>
    <clipPath
       id="clipPath862"
       clipPathUnits="userSpaceOnUse">
      <path
         id="path864"
         d="M 0,1567.2 0,0 4800,0 4800,1567.2 0,1567.2 Z" />
    </clipPath>
  </defs>
  <sodipodi:namedview
     id="base"
     pagecolor="#888888"
     bordercolor="#666666"
     borderopacity="1.0"
     inkscape:pageopacity="1"
     inkscape:pageshadow="2"
     inkscape:zoom="2.6077032"
     inkscape:cx="-156.35931"
     inkscape:cy="16.738865"
     inkscape:document-units="px"
     inkscape:current-layer="layer1"
     showgrid="true"
     inkscape:window-width="1920"
     inkscape:window-height="1029"
     inkscape:window-x="0"
     inkscape:window-y="24"
     inkscape:window-maximized="1"
     inkscape:snap-global="true"
     inkscape:snap-bbox="true"
     inkscape:bbox-paths="true"
     inkscape:snap-bbox-edge-midpoints="true"
     inkscape:bbox-nodes="true"
     inkscape:snap-bbox-midpoints="true"
     inkscape:snap-grids="true">
    <inkscape:grid
       type="xygrid"
       id="grid2985"
       empspacing="8"
       visible="true"
       enabled="true"
       snapvisiblegridlinesonly="true" />
  </sodipodi:namedview>
  <metadata
     id="metadata7">
    <rdf:RDF>
      <cc:Work
         rdf:about="">
        <dc:format>image/svg+xml</dc:format>
        <dc:type
           rdf:resource="http://purl.org/dc/dcmitype/StillImage" />
        <dc:title></dc:title>
      </cc:Work>
    </rdf:RDF>
  </metadata>
  <g
     inkscape:label="Layer 1"
     inkscape:groupmode="layer"
     id="layer1"
     transform="translate(0,-1028.3622)">
    <path
       style="color:#000000;fill:#ffffff;fill-opacity:1;fill-rule:nonzero;stroke:none;stroke-width:4;marker:none;visibility:visible;display:inline;overflow:visible;enable-background:accumulate"
       d="m 11.999923,1031.3622 c -1.735433,0 -3.3548898,0.4924 -4.7294348,1.3434 -0.07965,0.3711 -0.1023748,0.7393 -0.055462,1.0768 0.1450573,1.0447 0.7847311,2.0828 1.8059142,2.9384 0.475975,0.3988 1.0290916,0.766 1.5024676,0.9954 l 0.395966,0.1925 -0.12582,0.052 c -0.359752,0.1505 -1.2691996,0.2167 -1.7874076,0.1296 -1.0250528,-0.1727 -2.3076854,-0.9011 -3.1640563,-1.7949 -0.4548029,-0.4747 -0.6827612,-0.8379 -0.8696571,-1.3878 -0.013162,-0.038 -0.02565,-0.081 -0.037013,-0.122 -1.2123315,1.5333 -1.9354351,3.4703 -1.9354351,5.5768 0,4.9706 4.0294274,9 8.9999831,9 1.703866,0 3.297121,-0.4726 4.655421,-1.2952 0.03667,-0.1657 0.04275,-0.3177 0.04444,-0.6957 0.0034,-0.7047 -0.06109,-0.9887 -0.358965,-1.5913 -0.534509,-1.0814 -1.704236,-2.1659 -3.016029,-2.7941 -0.309206,-0.148 -0.333629,-0.167 -0.273847,-0.2109 0.1008,-0.074 0.662298,-0.1928 1.021386,-0.2182 1.015097,-0.072 2.208326,0.3533 3.308371,1.1804 0.893631,0.6719 1.452091,1.406 1.676404,2.2056 1.215133,-1.5343 1.942838,-3.4714 1.942838,-5.5806 C 20.999906,1035.3916 16.970479,1031.3622 11.999923,1031.3622 z m -1.361844,3.1678 c 0.270304,0 0.546659,0.026 0.725332,0.063 0.901359,0.189 1.830382,0.6667 2.675571,1.3767 1.14761,0.9641 1.658449,2.1956 1.38404,3.3417 -0.08393,0.3503 -0.186232,0.5646 -0.410771,0.8622 -0.404639,0.5362 -1.115064,0.9284 -2.024253,1.1212 -0.24471,0.052 -0.529199,0.07 -0.529199,0.034 0,-0.011 0.08752,-0.2023 0.196143,-0.4256 0.227857,-0.4686 0.340289,-0.8466 0.38116,-1.2879 0.128509,-1.3875 -0.644972,-2.7767 -2.187085,-3.9301 -0.383355,-0.2866 -0.882843,-0.586 -1.269324,-0.7623 -0.154688,-0.071 -0.262496,-0.1386 -0.244237,-0.1554 0.04286,-0.039 0.338388,-0.1344 0.610603,-0.1924 C 10.102569,1034.541 10.367787,1034.5267 10.638079,1034.53 z m 0.803046,4.8367 c 0.01946,7e-4 0.03038,0 0.03701,0.011 0.01946,0.012 -0.04039,0.1708 -0.136924,0.3589 -0.772018,1.5045 -0.513426,2.9908 0.766034,4.4149 0.501501,0.5582 1.372385,1.2066 2.10198,1.5654 0.218643,0.108 0.404538,0.2116 0.41077,0.2294 0.01417,0.041 -0.394897,0.1701 -0.69202,0.2184 -0.30844,0.051 -0.962458,0.037 -1.291531,-0.023 -0.57421,-0.1047 -1.324303,-0.4147 -1.924343,-0.7995 -1.19297,-0.7649 -1.9450648,-1.6877 -2.1796831,-2.6754 -0.071775,-0.3023 -0.081675,-0.8946 -0.01845,-1.188 0.1998109,-0.9275 0.9365831,-1.6218 2.0686571,-1.9502 C 10.881675,1039.4392 11.304832,1039.3624 11.441125,1039.3667 Z"
       id="path908"
       inkscape:connector-curvature="0" />
  </g>
</svg>
