<?xml version="1.0" encoding="UTF-8" standalone="no"?>
<!-- Created with Inkscape (http://www.inkscape.org/) -->

<svg
   xmlns:dc="http://purl.org/dc/elements/1.1/"
   xmlns:cc="http://creativecommons.org/ns#"
   xmlns:rdf="http://www.w3.org/1999/02/22-rdf-syntax-ns#"
   xmlns:svg="http://www.w3.org/2000/svg"
   xmlns="http://www.w3.org/2000/svg"
   xmlns:sodipodi="http://sodipodi.sourceforge.net/DTD/sodipodi-0.dtd"
   xmlns:inkscape="http://www.inkscape.org/namespaces/inkscape"
   width="24"
   height="24"
   id="svg2"
   version="1.1"
   inkscape:version="0.48.3.1 r9886"
   sodipodi:docname="service-askubuntu.svg">
  <defs
     id="defs4">
    <inkscape:perspective
       id="perspective2447"
       inkscape:persp3d-origin="372.04724 : 350.78739 : 1"
       inkscape:vp_z="744.09448 : 526.18109 : 1"
       inkscape:vp_y="0 : 1000 : 0"
       inkscape:vp_x="0 : 526.18109 : 1"
       sodipodi:type="inkscape:persp3d" />
    <inkscape:perspective
       sodipodi:type="inkscape:persp3d"
       inkscape:vp_x="0 : 0.5 : 1"
       inkscape:vp_y="0 : 1000 : 0"
       inkscape:vp_z="1 : 0.5 : 1"
       inkscape:persp3d-origin="0.5 : 0.33333333 : 1"
       id="perspective2846" />
    <inkscape:perspective
       id="perspective2824"
       inkscape:persp3d-origin="32 : 21.333333 : 1"
       inkscape:vp_z="64 : 32 : 1"
       inkscape:vp_y="0 : 1000 : 0"
       inkscape:vp_x="0 : 32 : 1"
       sodipodi:type="inkscape:persp3d" />
  </defs>
  <sodipodi:namedview
     id="base"
     pagecolor="#888888"
     bordercolor="#666666"
     borderopacity="1.0"
     inkscape:pageopacity="1"
     inkscape:pageshadow="2"
     inkscape:zoom="15.543122"
     inkscape:cx="22.673136"
     inkscape:cy="4.7062613"
     inkscape:document-units="px"
     inkscape:current-layer="layer1"
     showgrid="true"
     inkscape:window-width="1920"
     inkscape:window-height="1029"
     inkscape:window-x="0"
     inkscape:window-y="24"
     inkscape:window-maximized="1"
     inkscape:snap-global="true"
     inkscape:snap-bbox="true"
     inkscape:bbox-paths="true"
     inkscape:snap-bbox-edge-midpoints="true"
     inkscape:bbox-nodes="true"
     inkscape:snap-bbox-midpoints="true"
     inkscape:snap-grids="true">
    <inkscape:grid
       type="xygrid"
       id="grid2985"
       empspacing="8"
       visible="true"
       enabled="true"
       snapvisiblegridlinesonly="true" />
  </sodipodi:namedview>
  <metadata
     id="metadata7">
    <rdf:RDF>
      <cc:Work
         rdf:about="">
        <dc:format>image/svg+xml</dc:format>
        <dc:type
           rdf:resource="http://purl.org/dc/dcmitype/StillImage" />
        <dc:title></dc:title>
      </cc:Work>
    </rdf:RDF>
  </metadata>
  <g
     inkscape:label="Layer 1"
     inkscape:groupmode="layer"
     id="layer1"
     transform="translate(0,-1028.3622)">
    <path
       style="color:#000000;fill:#ffffff;fill-opacity:1;fill-rule:nonzero;stroke:none;stroke-width:2;marker:none;visibility:visible;display:inline;overflow:visible;enable-background:accumulate"
       d="M 12 3 C 7.0294373 3 3 7.0294373 3 12 C 3 16.970563 7.0294373 21 12 21 C 13.66839 21 15.222959 20.541155 16.5625 19.75 L 21 21 L 19.75 16.5625 C 20.541155 15.222959 21 13.66839 21 12 C 21 7.0294373 16.970563 3 12 3 z M 15.9375 7.78125 L 15.9375 12.125 C 16.090578 11.9779 16.252526 11.8028 16.4375 11.625 C 16.62247 11.4474 16.790154 11.27765 16.96875 11.09375 C 17.147341 10.91005 17.309289 10.7279 17.46875 10.5625 C 17.628206 10.3909 17.791436 10.2537 17.90625 10.125 L 18.9375 10.125 C 18.790794 10.2782 18.640961 10.4412 18.46875 10.625 C 18.296531 10.8089 18.122468 10.9975 17.9375 11.1875 C 17.752525 11.3713 17.535097 11.5601 17.34375 11.75 C 17.158775 11.9339 17.009584 12.11575 16.84375 12.28125 C 17.035098 12.42215 17.227011 12.57295 17.4375 12.78125 C 17.65436 12.98965 17.858389 13.22365 18.0625 13.46875 C 18.272981 13.70775 18.471274 13.96745 18.65625 14.21875 C 18.841218 14.46385 18.997428 14.69175 19.125 14.90625 L 18.09375 14.90625 C 17.959801 14.69175 17.80359 14.4705 17.625 14.25 C 17.452781 14.0232 17.253847 13.79595 17.0625 13.59375 C 16.871147 13.38535 16.697727 13.20285 16.5 13.03125 C 16.30227 12.85975 16.116092 12.71015 15.9375 12.59375 L 15.9375 14.90625 L 15.03125 14.90625 L 15.03125 7.90625 L 15.9375 7.78125 z M 7.09375 10 C 7.4509346 10 7.7576199 10.0332 8 10.125 C 8.248752 10.211 8.4470443 10.36585 8.59375 10.53125 C 8.7468262 10.69055 8.8424624 10.86705 8.90625 11.09375 C 8.970029 11.31435 8.999996 11.57415 9 11.84375 L 9 14.8125 C 8.923456 14.8245 8.8278195 14.851 8.6875 14.875 C 8.5535509 14.893 8.3909616 14.9185 8.21875 14.9375 C 8.0465313 14.9555 7.8603539 14.95675 7.65625 14.96875 C 7.4585186 14.98675 7.2602261 15 7.0625 15 C 6.7818507 15 6.517247 14.96125 6.28125 14.90625 C 6.0452499 14.85125 5.8597142 14.77265 5.6875 14.65625 C 5.5152839 14.53375 5.3769245 14.3836 5.28125 14.1875 C 5.185574 13.9915 5.1249996 13.74455 5.125 13.46875 C 5.1249996 13.20535 5.1728172 12.97125 5.28125 12.78125 C 5.3960595 12.59125 5.5586488 12.46005 5.75 12.34375 C 5.9413491 12.22725 6.1511147 12.14895 6.40625 12.09375 C 6.6613818 12.03875 6.9381006 12 7.21875 12 C 7.308044 12 7.4043221 11.992 7.5 12 C 7.595672 12.01 7.6983286 12.0435 7.78125 12.0625 C 7.870544 12.0745 7.9362133 12.08075 8 12.09375 C 8.06378 12.10575 8.0994832 12.118 8.125 12.125 L 8.125 11.875 C 8.1249966 11.7341 8.125639 11.60365 8.09375 11.46875 C 8.061855 11.32785 7.9891653 11.19795 7.90625 11.09375 C 7.823328 10.98345 7.709199 10.90505 7.5625 10.84375 C 7.4221737 10.77675 7.2296179 10.75 7 10.75 C 6.7065941 10.75 6.4732404 10.7695 6.25 10.8125 C 6.033135 10.8495 5.8584307 10.86375 5.75 10.90625 L 5.65625 10.21875 C 5.7710591 10.16975 5.9508582 10.1054 6.21875 10.0625 C 6.4866387 10.0135 6.781209 10 7.09375 10 z M 12.1875 10 C 12.34367 10 12.500076 10.01325 12.65625 10.03125 C 12.812419 10.04325 12.958872 10.06975 13.09375 10.09375 C 13.228623 10.11175 13.369363 10.13225 13.46875 10.15625 C 13.575225 10.18125 13.630706 10.20075 13.6875 10.21875 L 13.53125 10.9375 C 13.424764 10.8885 13.258406 10.8615 13.03125 10.8125 C 12.804088 10.7575 12.506939 10.71875 12.1875 10.71875 C 11.910648 10.71875 11.67461 10.7769 11.46875 10.875 C 11.262886 10.967 11.156249 11.1102 11.15625 11.3125 C 11.156249 11.4166 11.17616 11.51405 11.21875 11.59375 C 11.26844 11.67375 11.345215 11.7452 11.4375 11.8125 C 11.53688 11.8745 11.670524 11.91355 11.8125 11.96875 C 11.954473 12.02375 12.113734 12.09495 12.3125 12.15625 C 12.57515 12.24225 12.825384 12.32045 13.03125 12.40625 C 13.23711 12.48625 13.389271 12.5773 13.53125 12.6875 C 13.680318 12.7978 13.79691 12.93435 13.875 13.09375 C 13.95308 13.24685 13.999996 13.42955 14 13.65625 C 13.999996 14.09755 13.820826 14.42955 13.4375 14.65625 C 13.061265 14.88295 12.515271 15 11.8125 15 C 11.322687 15 10.933099 14.98055 10.65625 14.90625 C 10.379399 14.83925 10.193131 14.7868 10.09375 14.75 L 10.28125 14 C 10.394827 14.036 10.564044 14.114 10.8125 14.1875 C 11.060954 14.2605 11.400774 14.28125 11.8125 14.28125 C 12.217125 14.28125 12.495832 14.24805 12.6875 14.15625 C 12.88626 14.06425 12.999996 13.92105 13 13.71875 C 12.999996 13.51055 12.910408 13.34115 12.71875 13.21875 C 12.527081 13.09615 12.190118 12.93445 11.75 12.78125 C 11.537036 12.70825 11.355012 12.6361 11.15625 12.5625 C 10.964584 12.4825 10.798223 12.4167 10.65625 12.3125 C 10.514274 12.2084 10.397684 12.05335 10.3125 11.90625 C 10.22731 11.75925 10.187499 11.5895 10.1875 11.375 C 10.187499 10.9522 10.356714 10.62 10.71875 10.375 C 11.080784 10.1238 11.562811 10 12.1875 10 z M 7.3125 12.6875 C 7.1785523 12.6875 7.028078 12.70075 6.875 12.71875 C 6.7282961 12.73675 6.5963151 12.78325 6.46875 12.84375 C 6.3475598 12.89875 6.239167 12.9582 6.15625 13.0625 C 6.07333 13.1605 6.0312487 13.30325 6.03125 13.46875 C 6.0312487 13.77505 6.1396415 14.0025 6.34375 14.125 C 6.5478552 14.2415 6.8054389 14.28125 7.15625 14.28125 C 7.3667327 14.28125 7.5592885 14.29125 7.71875 14.28125 C 7.8845838 14.26825 8.0165648 14.24275 8.125 14.21875 L 8.125 12.78125 C 8.061213 12.75025 7.9591987 12.73675 7.8125 12.71875 C 7.6721735 12.69475 7.5166043 12.6875 7.3125 12.6875 z "
       transform="translate(0,1028.3622)"
       id="path3806" />
  </g>
</svg>
