<?xml version="1.0" encoding="UTF-8" standalone="no"?>
<!-- Created with Inkscape (http://www.inkscape.org/) -->

<svg
   xmlns:dc="http://purl.org/dc/elements/1.1/"
   xmlns:cc="http://creativecommons.org/ns#"
   xmlns:rdf="http://www.w3.org/1999/02/22-rdf-syntax-ns#"
   xmlns:svg="http://www.w3.org/2000/svg"
   xmlns="http://www.w3.org/2000/svg"
   xmlns:sodipodi="http://sodipodi.sourceforge.net/DTD/sodipodi-0.dtd"
   xmlns:inkscape="http://www.inkscape.org/namespaces/inkscape"
   width="24"
   height="24"
   id="svg2"
   version="1.1"
   inkscape:version="0.48.3.1 r9886"
   sodipodi:docname="service-reddit.svg">
  <defs
     id="defs4">
    <inkscape:perspective
       id="perspective2447"
       inkscape:persp3d-origin="372.04724 : 350.78739 : 1"
       inkscape:vp_z="744.09448 : 526.18109 : 1"
       inkscape:vp_y="0 : 1000 : 0"
       inkscape:vp_x="0 : 526.18109 : 1"
       sodipodi:type="inkscape:persp3d" />
    <inkscape:perspective
       sodipodi:type="inkscape:persp3d"
       inkscape:vp_x="0 : 0.5 : 1"
       inkscape:vp_y="0 : 1000 : 0"
       inkscape:vp_z="1 : 0.5 : 1"
       inkscape:persp3d-origin="0.5 : 0.33333333 : 1"
       id="perspective2846" />
    <inkscape:perspective
       id="perspective2824"
       inkscape:persp3d-origin="32 : 21.333333 : 1"
       inkscape:vp_z="64 : 32 : 1"
       inkscape:vp_y="0 : 1000 : 0"
       inkscape:vp_x="0 : 32 : 1"
       sodipodi:type="inkscape:persp3d" />
  </defs>
  <sodipodi:namedview
     id="base"
     pagecolor="#888888"
     bordercolor="#666666"
     borderopacity="1.0"
     inkscape:pageopacity="1"
     inkscape:pageshadow="2"
     inkscape:zoom="24.286128"
     inkscape:cx="19.481615"
     inkscape:cy="15.617969"
     inkscape:document-units="px"
     inkscape:current-layer="g3131"
     showgrid="true"
     inkscape:window-width="1920"
     inkscape:window-height="1029"
     inkscape:window-x="0"
     inkscape:window-y="24"
     inkscape:window-maximized="1"
     inkscape:snap-global="false"
     inkscape:snap-bbox="true"
     inkscape:bbox-paths="true"
     inkscape:snap-bbox-edge-midpoints="true"
     inkscape:bbox-nodes="true"
     inkscape:snap-bbox-midpoints="true"
     inkscape:snap-grids="true">
    <inkscape:grid
       type="xygrid"
       id="grid2985"
       empspacing="8"
       visible="true"
       enabled="true"
       snapvisiblegridlinesonly="true" />
  </sodipodi:namedview>
  <metadata
     id="metadata7">
    <rdf:RDF>
      <cc:Work
         rdf:about="">
        <dc:format>image/svg+xml</dc:format>
        <dc:type
           rdf:resource="http://purl.org/dc/dcmitype/StillImage" />
        <dc:title></dc:title>
      </cc:Work>
    </rdf:RDF>
  </metadata>
  <g
     inkscape:label="Layer 1"
     inkscape:groupmode="layer"
     id="layer1"
     transform="translate(0,-1028.3622)">
    <g
       id="g3131"
       transform="matrix(0.06961088,0,0,0.06961088,39.313371,972.59455)">
      <path
         style="fill:#ffffff;fill-opacity:1;fill-rule:nonzero;stroke:none"
         id="path10589"
         d="m -471.00284,955.37439 c 0,14.06062 -11.39541,25.4466 -25.45602,25.4466 -14.0512,0 -25.43718,-11.38598 -25.43718,-25.4466 0,-14.06061 11.38598,-25.45602 25.43718,-25.45602 14.06061,0 25.45602,11.39541 25.45602,25.45602"
         inkscape:connector-curvature="0" />
      <path
         style="fill:#ffffff;fill-opacity:1;fill-rule:nonzero;stroke:none"
         id="path10597"
         d="m -262.84828,955.37439 c 0,14.06062 -11.39541,25.4466 -25.4561,25.4466 -14.05119,0 -25.4371,-11.38598 -25.4371,-25.4466 0,-14.06061 11.38591,-25.45602 25.4371,-25.45602 14.06069,0 25.4561,11.39541 25.4561,25.45602"
         inkscape:connector-curvature="0" />
      <path
         style="fill:#ffffff;fill-opacity:1;fill-rule:nonzero;stroke:none"
         id="path10617"
         d="m -276.86153,879.92532 c 0,11.83194 -9.59844,21.4303 -21.42032,21.4303 -11.85205,0 -21.44035,-9.59836 -21.44035,-21.4303 0,-11.84199 9.5883,-21.43029 21.44035,-21.43029 11.82188,0 21.42032,9.5883 21.42032,21.43029"
         inkscape:connector-curvature="0" />
      <path
         style="fill:#ffffff;fill-opacity:1;fill-rule:nonzero;stroke:none"
         d="m -392.82108,915.16081 c -63.65418,0 -115.37349,35.69659 -115.37349,79.45956 0,43.76303 51.71931,79.01063 115.37349,79.01063 63.66359,0 115.37348,-35.2476 115.37348,-79.01063 0,-43.76297 -51.70989,-79.45956 -115.37348,-79.45956 z m 41.30101,40.40317 c 10.9941,0 19.75266,9.19355 19.75266,20.20158 0,10.99414 -8.75856,19.75266 -19.75266,19.75266 -10.98018,0 -20.20158,-8.75852 -20.20158,-19.75266 0,-11.00803 9.2214,-20.20158 20.20158,-20.20158 z m -81.25526,0.89785 c 10.56259,0 18.85481,8.71437 18.85481,19.30373 0,10.57602 -8.29222,18.85481 -18.85481,18.85481 -10.58934,0 -19.30373,-8.27879 -19.30373,-18.85481 0,-10.58936 8.71439,-19.30373 19.30373,-19.30373 z m -2.24462,61.50257 c 0.0355,-0.012 0.41301,0.011 0.44893,0 0.0359,-0.011 0.41265,0.01 0.44892,0 a 1.9222548,1.9222548 0 0 1 0.44893,0 c 0.0235,0 0.42539,-5e-4 0.44892,0 0.0235,-10e-4 0.42537,5e-4 0.44892,0 0.0236,5e-4 0.42539,-10e-4 0.44893,0 0.0257,1e-4 0.42319,-7e-4 0.44892,0 0.0257,0 0.42331,-0 0.44893,0 0.0255,0 0.42345,-0 0.44892,0 0.0253,0 0.42378,-0.01 0.44892,0 0.0249,0.01 0.42424,-0.01 0.44893,0 0.0245,0.01 -0.0243,0.4405 0,0.4489 0.0243,0.01 0.42482,-0.01 0.44892,0 0.0236,0.01 0.42553,-0.011 0.44893,0 0.0231,0.011 0.42606,-0.012 0.44892,0 0.0229,0.012 -0.0226,0.4366 0,0.449 0.022,0.013 0.42728,-0.014 0.44892,0 0.0213,0.014 -0.0209,0.434 0,0.4489 0.021,0.015 0.42833,-0.015 0.44893,0 0.0198,0.016 0.42947,0.4321 0.44892,0.4489 7.27032,7.2703 20.98096,10.1339 33.22038,10.3253 0.55263,0.01 1.18874,0 1.7957,0 0.60735,0 1.24266,0.01 1.7957,0 12.24659,-0.191 25.93624,-3.048 33.22038,-10.3253 0.0172,-0.015 0.43145,-0.4342 0.44892,-0.4489 0.0184,-0.014 0.43028,0.013 0.44892,0 0.0186,-0.013 -0.0189,-0.4362 0,-0.4489 0.0194,-0.012 0.42925,0.011 0.44893,0 0.0202,-0.011 0.42855,-0.4387 0.44892,-0.449 0.0208,-0.01 0.42794,0.01 0.44893,0 0.0215,-0.01 0.42726,-0.4417 0.44892,-0.4489 0.022,-0.01 0.42685,0.01 0.44893,0 0.0223,-0 0.42652,0 0.44892,0 0.0226,-0 0.4263,0 0.44892,0 0.0227,-0 0.42616,0 0.44893,0 0.0213,-10e-4 0.42765,6e-4 0.44892,0 0.0213,3e-4 0.42765,-6e-4 0.44893,0 0.0212,0 0.42772,-0 0.44892,0 0.0211,0 0.42788,-0 0.44892,0 0.0208,0 0.42818,-0 0.44893,0 0.0205,0.01 0.42849,-0.01 0.44892,0 0.0202,0.01 0.42889,0.4418 0.44893,0.4489 0.0196,0.01 0.42951,-0.01 0.44892,0 0.019,0.01 0.43006,-0.01 0.44892,0 0.0189,0.01 -0.0187,0.4387 0,0.449 0.0182,0.011 0.4309,-0.011 0.44893,0 0.0176,0.012 -0.0173,0.4366 0,0.4489 0.0173,0.012 0.43183,-0.013 0.44892,0 0.0163,0.014 0.43288,0.4349 0.44893,0.4489 0.0152,0.015 0.43402,-0.015 0.44892,0 0.0149,0.015 -0.0146,0.4335 0,0.4489 0.0137,0.016 0.43558,0.4324 0.44892,0.449 0.0123,0.017 -0.012,0.4313 0,0.4489 0.0116,0.018 0.43762,-0.018 0.44893,0 0.0109,0.018 -0.0106,0.4305 0,0.4489 0.009,0.019 0.43981,0.4297 0.44892,0.4489 0.008,0.02 -0.008,0.4292 0,0.449 0.007,0.02 -0.006,0.4286 0,0.4489 0.006,0.02 0.44374,0.4283 0.44893,0.4489 0.004,0.021 -0.004,0.428 0,0.4489 0.003,0.021 -0.002,0.4278 0,0.449 0.001,0.021 -0.001,0.4276 0,0.4489 2.4e-4,0.021 1.7e-4,0.4276 0,0.4489 -0.001,0.021 0.001,0.4277 0,0.4489 -0.003,0.021 0.003,0.4279 0,0.449 -0.004,0.021 0.004,0.428 0,0.4489 -0.005,0.021 0.006,0.4283 0,0.4489 -0.006,0.021 -0.44299,-0.02 -0.44893,0 -0.007,0.02 0.007,0.4289 0,0.4489 -0.008,0.02 0.008,0.4293 0,0.449 -0.009,0.019 -0.4395,-0.019 -0.44892,0 -0.009,0.019 0.01,0.43 0,0.4489 -0.0105,0.018 0.0109,0.4306 0,0.4489 -0.0113,0.018 -0.43732,-0.018 -0.44893,0 -0.012,0.018 0.0123,0.4316 0,0.4489 -0.0133,0.017 -0.4353,0.4326 -0.44892,0.4489 -0.0146,0.016 0.0148,0.4337 0,0.449 -0.0149,0.015 -0.43377,-0.015 -0.44892,0 -12.0266,12.0153 -29.65412,13.809 -43.54564,13.9166 -0.44537,0 -0.93951,0 -1.34677,0 -0.40716,0 -0.90163,0 -1.34677,0 -13.88384,-0.107 -31.52414,-1.8952 -43.54564,-13.9166 -0.0275,-0.025 -0.42228,0.026 -0.44892,0 -0.0267,-0.026 0.0257,-0.4217 0,-0.449 -0.0248,-0.028 -0.42515,-0.4199 -0.44892,-0.4489 -0.0228,-0.03 0.0217,-0.4183 0,-0.4489 -0.0217,-0.031 -0.42828,0.031 -0.44893,0 -0.0196,-0.032 0.0184,-0.4163 0,-0.4489 -0.0184,-0.033 -0.43161,0.033 -0.44892,0 -0.0173,-0.033 0.0162,-0.4151 0,-0.4489 -0.015,-0.034 0.0138,-0.4141 0,-0.449 -0.0126,-0.035 -0.43759,-0.4132 -0.44893,-0.4489 -0.0101,-0.036 0.009,-0.4125 0,-0.4489 -0.009,-0.036 0.008,-0.4122 0,-0.4489 -0.006,-0.037 0.005,-0.4118 0,-0.449 -0.004,-0.037 0.002,-0.4115 0,-0.4489 -0.001,-0.038 -1.2e-4,-0.4114 0,-0.4489 0.001,-0.037 -0.003,-0.4115 0,-0.4489 0.004,-0.037 -0.005,-0.4118 0,-0.449 0.005,-0.037 -0.007,-0.412 0,-0.4489 0.008,-0.037 -0.009,-0.4125 0,-0.4489 0.0104,-0.036 -0.0116,-0.4133 0,-0.4489 0.0116,-0.036 0.43612,0.035 0.44893,0 0.0128,-0.035 -0.014,-0.4142 0,-0.449 0.0152,-0.034 -0.0164,-0.4152 0,-0.4489 0.0164,-0.034 0.43139,0.033 0.44892,0 0.0175,-0.033 -0.0187,-0.4164 0,-0.4489 0.0198,-0.032 -0.0209,-0.4178 0,-0.4489 0.0209,-0.031 0.427,0.03 0.44893,0 0.023,-0.03 -0.024,-0.4201 0,-0.449 0.024,-0.029 0.42397,0.028 0.44892,0 0.0249,-0.028 -0.0259,-0.4218 0,-0.4489 0.0268,-0.026 0.42121,0.025 0.44892,0 0.0277,-0.025 -0.0286,-0.4246 0,-0.4489 0.0286,-0.024 0.41954,0.023 0.44893,0 0.0302,-0.022 0.418,-0.4277 0.44892,-0.4489 0.0316,-0.02 0.41662,0.019 0.44893,0 0.0323,-0.019 -0.0329,-0.4311 0,-0.449 0.0335,-0.017 0.41482,0.016 0.44892,0 0.0346,-0.014 0.41383,-0.4357 0.44892,-0.4489 z"
         id="path10633"
         inkscape:connector-curvature="0" />
      <path
         style="color:#000000;fill:none;stroke:#ffffff;stroke-width:14.36557007;stroke-linejoin:round;stroke-miterlimit:4;stroke-dasharray:none;marker:none;visibility:visible;display:inline;overflow:visible;enable-background:accumulate"
         d="m -387.58891,927.87232 3.02855,-62.46382 78.74227,16.65702"
         id="path3166"
         inkscape:connector-curvature="0"
         sodipodi:nodetypes="ccc" />
    </g>
  </g>
</svg>
