<?xml version="1.0" encoding="utf-8"?>
<!-- Generator: Adobe Illustrator 15.0.0, SVG Export Plug-In . SVG Version: 6.00 Build 0)  -->
<!DOCTYPE svg PUBLIC "-//W3C//DTD SVG 1.1//EN" "http://www.w3.org/Graphics/SVG/1.1/DTD/svg11.dtd">
<svg version="1.1" id="Layer_1" xmlns="http://www.w3.org/2000/svg" xmlns:xlink="http://www.w3.org/1999/xlink" x="0px" y="0px"
	 width="24px" height="24px" viewBox="-2 -2 24 24" enable-background="new -2 -2 24 24" xml:space="preserve">
<g id="r2Mrmh.tif">
	<g>
		<path fill="#FFFFFF" d="M17.334,16.048c-0.138,0.404-0.513,1.178,0.036,1.261c0.59,0.092,1.074-0.946,1.226-1.298
			c0.217-0.5,0.627-1.605,0.253-2.09c-0.205-0.265-1.121-0.345-1.804-0.289c-0.568,0.047-2.053,0.45-1.91,1.081
			c0.15,0.673,2.067-0.242,2.452,0.217C17.613,15.431,17.458,15.683,17.334,16.048z M1.001,14.677
			c-0.02,0.498,1.246,1.256,1.441,1.407c1.663,1.278,3.324,2.389,5.95,2.668c2.705,0.287,5.19-0.577,6.958-1.55
			c0.33-0.182,1.638-0.707,1.55-1.334c-0.107-0.796-1.082-0.226-1.657,0c-1.728,0.678-4.127,1.292-6.418,1.118
			c-2.858-0.219-4.613-1.256-6.525-2.307c-0.267-0.147-0.707-0.419-0.974-0.36C1.14,14.355,1.011,14.411,1.001,14.677z"/>
		<path fill="#FFFFFF" d="M9.005,1.192c0.384,0,0.769,0,1.154,0c1.455,0.157,3.044,0.696,3.642,1.983
			c0.855,1.845,0.072,4.69,0.36,6.959c0.06,0.46,0.264,0.814,0.541,1.19c0.172,0.232,0.449,0.489,0.433,0.721
			c-0.021,0.316-0.73,0.772-1.01,1.009c-0.293,0.247-0.796,0.848-1.226,0.83c-0.359-0.017-0.616-0.424-0.83-0.649
			c-0.228-0.239-0.42-0.477-0.648-0.829c-0.532,0.366-0.966,0.808-1.587,1.117c-0.617,0.309-1.358,0.487-2.307,0.47
			c-1.992-0.037-3.17-1.269-3.317-2.956c-0.348-3.999,3.143-4.771,6.743-4.941c-0.019-0.712,0.031-1.303-0.181-1.767
			c-0.486-1.062-2.318-0.952-2.993-0.034c-0.257,0.35-0.155,0.773-0.54,1.045C6.333,5.187,5.151,5.311,4.57,4.834
			C4.91,2.482,6.601,1.481,9.005,1.192z M10.557,7.899C9.625,7.982,8.851,8.004,8.248,8.476c-0.783,0.612-1.162,2.711,0.108,3.209
			c0.597,0.233,1.333-0.042,1.695-0.361c0.74-0.651,1.021-1.951,0.864-3.461C10.707,7.838,10.654,7.89,10.557,7.899z"/>
		<path fill="#FFFFFF" d="M17.587,14.93c-0.385-0.459-2.302,0.456-2.452-0.217c-0.143-0.632,1.342-1.035,1.91-1.081
			c0.683-0.056,1.599,0.024,1.804,0.289c0.374,0.484-0.036,1.59-0.253,2.09c-0.151,0.352-0.636,1.39-1.226,1.298
			c-0.549-0.083-0.174-0.856-0.036-1.261C17.458,15.683,17.613,15.431,17.587,14.93z"/>
		<path fill="#FFFFFF" d="M1.324,14.317c0.268-0.059,0.707,0.213,0.974,0.359c1.913,1.052,3.668,2.09,6.525,2.308
			c2.291,0.176,4.691-0.438,6.419-1.118c0.575-0.226,1.55-0.796,1.657,0c0.086,0.628-1.22,1.153-1.551,1.334
			c-1.769,0.973-4.254,1.837-6.958,1.55c-2.625-0.278-4.287-1.39-5.95-2.668C2.246,15.933,0.98,15.173,1,14.675
			C1.011,14.411,1.14,14.355,1.324,14.317z"/>
	</g>
</g>
</svg>
