<?xml version="1.0" encoding="utf-8"?>
<!-- Generator: Adobe Illustrator 15.0.0, SVG Export Plug-In . SVG Version: 6.00 Build 0)  -->
<!DOCTYPE svg PUBLIC "-//W3C//DTD SVG 1.1//EN" "http://www.w3.org/Graphics/SVG/1.1/DTD/svg11.dtd">
<svg version="1.1" id="Layer_1" xmlns="http://www.w3.org/2000/svg" xmlns:xlink="http://www.w3.org/1999/xlink" x="0px" y="0px"
	 width="24px" height="24px" viewBox="0 0 24 24" enable-background="new 0 0 24 24" xml:space="preserve">
<path fill="#FFFFFF" d="M15.718,3.808C14.541,3.274,13.291,3,11.999,3C10.924,3,9.867,3.207,8.85,3.588
	c0.239,0.216,6.56,5.955,6.868,6.234C15.718,9.408,15.718,3.936,15.718,3.808L15.718,3.808z"/>
<path fill="#FFFFFF" d="M7.357,19.721c0-0.352,0-7.338,0-7.754c-0.302,0.274-3.623,3.293-3.727,3.387
	C4.354,17.166,5.673,18.703,7.357,19.721L7.357,19.721z"/>
<path fill="#FFFFFF" d="M2.981,12.019c0,0.775,0.116,1.561,0.327,2.342c0.244-0.222,7.838-7.121,7.994-7.263
	C11.15,6.96,7.992,4.094,7.89,4C4.861,5.555,2.981,8.619,2.981,12.019L2.981,12.019z"/>
<path fill="#FFFFFF" d="M8.305,15.938c0,0.188,0,4.175,0,4.304c0.917,0.412,1.876,0.667,2.863,0.759h1.653
	c3.115-0.29,5.897-2.211,7.279-5.062C19.774,15.938,8.498,15.938,8.305,15.938L8.305,15.938z"/>
<path fill="#FFFFFF" d="M16.669,4.326c0,0.357,0,10.47,0,10.661c0.185,0,3.694,0,3.838,0c0.336-0.96,0.512-1.958,0.512-2.968
	C21.019,8.885,19.353,5.958,16.669,4.326L16.669,4.326z"/>
</svg>
