<?xml version="1.0" encoding="utf-8"?>
<!-- Generator: Adobe Illustrator 15.0.0, SVG Export Plug-In . SVG Version: 6.00 Build 0)  -->
<!DOCTYPE svg PUBLIC "-//W3C//DTD SVG 1.1//EN" "http://www.w3.org/Graphics/SVG/1.1/DTD/svg11.dtd">
<svg version="1.1" id="Layer_1" xmlns="http://www.w3.org/2000/svg" xmlns:xlink="http://www.w3.org/1999/xlink" x="0px" y="0px"
	 width="24px" height="24px" viewBox="0 0 24 24" enable-background="new 0 0 24 24" xml:space="preserve">
<path fill="#FFFFFF" d="M19.972,3H4.029C3.463,3,3,3.463,3,4.029v15.943C3,20.537,3.463,21,4.029,21h15.943
	C20.537,21,21,20.537,21,19.972V4.029C21,3.463,20.537,3,19.972,3z M8,15.5c-1.934,0-3.5-1.566-3.5-3.5S6.066,8.5,8,8.5
	c1.933,0,3.5,1.566,3.5,3.5S9.933,15.5,8,15.5z M16,15.5c-1.934,0-3.5-1.566-3.5-3.5s1.566-3.5,3.5-3.5c1.933,0,3.5,1.566,3.5,3.5
	S17.933,15.5,16,15.5z"/>
</svg>
