<?xml version="1.0" encoding="UTF-8" standalone="no"?>
<!-- Created with Inkscape (http://www.inkscape.org/) -->

<svg
   xmlns:dc="http://purl.org/dc/elements/1.1/"
   xmlns:cc="http://creativecommons.org/ns#"
   xmlns:rdf="http://www.w3.org/1999/02/22-rdf-syntax-ns#"
   xmlns:svg="http://www.w3.org/2000/svg"
   xmlns="http://www.w3.org/2000/svg"
   xmlns:sodipodi="http://sodipodi.sourceforge.net/DTD/sodipodi-0.dtd"
   xmlns:inkscape="http://www.inkscape.org/namespaces/inkscape"
   width="24"
   height="24"
   id="svg2"
   version="1.1"
   inkscape:version="0.48.3.1 r9886"
   sodipodi:docname="service-yahoo-finance.svg">
  <defs
     id="defs4">
    <inkscape:perspective
       id="perspective2447"
       inkscape:persp3d-origin="372.04724 : 350.78739 : 1"
       inkscape:vp_z="744.09448 : 526.18109 : 1"
       inkscape:vp_y="0 : 1000 : 0"
       inkscape:vp_x="0 : 526.18109 : 1"
       sodipodi:type="inkscape:persp3d" />
    <inkscape:perspective
       sodipodi:type="inkscape:persp3d"
       inkscape:vp_x="0 : 0.5 : 1"
       inkscape:vp_y="0 : 1000 : 0"
       inkscape:vp_z="1 : 0.5 : 1"
       inkscape:persp3d-origin="0.5 : 0.33333333 : 1"
       id="perspective2846" />
    <inkscape:perspective
       id="perspective2824"
       inkscape:persp3d-origin="32 : 21.333333 : 1"
       inkscape:vp_z="64 : 32 : 1"
       inkscape:vp_y="0 : 1000 : 0"
       inkscape:vp_x="0 : 32 : 1"
       sodipodi:type="inkscape:persp3d" />
  </defs>
  <sodipodi:namedview
     id="base"
     pagecolor="#888888"
     bordercolor="#666666"
     borderopacity="1.0"
     inkscape:pageopacity="1"
     inkscape:pageshadow="2"
     inkscape:zoom="37.947076"
     inkscape:cx="17.931851"
     inkscape:cy="8.2312006"
     inkscape:document-units="px"
     inkscape:current-layer="layer1"
     showgrid="true"
     inkscape:window-width="1920"
     inkscape:window-height="1029"
     inkscape:window-x="0"
     inkscape:window-y="24"
     inkscape:window-maximized="1"
     inkscape:snap-global="false"
     inkscape:snap-bbox="true"
     inkscape:bbox-paths="true"
     inkscape:snap-bbox-edge-midpoints="true"
     inkscape:bbox-nodes="true"
     inkscape:snap-bbox-midpoints="true"
     inkscape:snap-grids="true">
    <inkscape:grid
       type="xygrid"
       id="grid2985"
       empspacing="8"
       visible="true"
       enabled="true"
       snapvisiblegridlinesonly="true" />
  </sodipodi:namedview>
  <metadata
     id="metadata7">
    <rdf:RDF>
      <cc:Work
         rdf:about="">
        <dc:format>image/svg+xml</dc:format>
        <dc:type
           rdf:resource="http://purl.org/dc/dcmitype/StillImage" />
        <dc:title></dc:title>
      </cc:Work>
    </rdf:RDF>
  </metadata>
  <g
     inkscape:label="Layer 1"
     inkscape:groupmode="layer"
     id="layer1"
     transform="translate(0,-1028.3622)">
    <path
       style="opacity:1;color:#000000;fill:#ffffff;fill-opacity:1;fill-rule:nonzero;stroke:none;stroke-width:1.50000000000000000;marker:none;visibility:visible;display:inline;overflow:visible;enable-background:accumulate"
       d="M 10.5 7 C 6.3578411 7 3 9.4608896 3 12.5 C 3 15.53911 6.3578411 18 10.5 18 C 14.642159 18 18 15.53911 18 12.5 C 18 9.4608896 14.642159 7 10.5 7 z M 5.3125 9.15625 L 10.1875 9.21875 L 10.125 9.71875 L 8.625 9.8125 L 10.78125 12.65625 C 10.78125 12.65625 12.733369 11.1192 12.75 10.875 C 12.625281 10.778 11.46875 10.6875 11.46875 10.6875 L 11.375 10.03125 L 15.5625 10.0625 L 15.28125 10.6875 L 14.0625 10.90625 C 14.0625 10.90625 12.233138 12.1512 11.21875 13.25 C 11.14392 13.9662 11.25 15.03125 11.25 15.03125 L 12.78125 15.0625 C 12.78125 15.0625 12.7563 15.932 12.78125 15.875 C 12.8062 15.818 8 15.90625 8 15.90625 L 8.09375 15.0625 C 8.09375 15.0625 9.3858859 15.1436 9.59375 14.875 L 9.5625 13.28125 C 9.2382304 12.66255 7.1012249 10.263 6.71875 9.9375 L 5.34375 9.75 L 5.3125 9.15625 z "
       transform="translate(0,1028.3622)"
       id="path3073" />
    <path
       style="fill:#ffffff;stroke:none"
       d="m 19,1042.3622 -0.01357,-7.2263 2.013575,0.2263 -0.751132,7.0574 z"
       id="path3069"
       inkscape:connector-curvature="0"
       sodipodi:nodetypes="ccccc" />
    <path
       sodipodi:nodetypes="ccccc"
       style="fill:#ffffff;stroke:none"
       d="m 18.783477,1044.5414 0.09385,-1.3615 1.40597,0.1055 -0.22385,1.4859 z"
       id="path3071"
       inkscape:connector-curvature="0" />
  </g>
</svg>
