<?xml version="1.0" encoding="UTF-8" standalone="no"?>
<!-- Created with Inkscape (http://www.inkscape.org/) -->

<svg
   xmlns:svg="http://www.w3.org/2000/svg"
   xmlns="http://www.w3.org/2000/svg"
   xmlns:xlink="http://www.w3.org/1999/xlink"
   version="1.1"
   width="128"
   height="128"
   id="svg7542">
  <defs
     id="defs7544">
    <linearGradient
       x1="23.99999"
       y1="4.999989"
       x2="23.99999"
       y2="43"
       id="linearGradient2959"
       xlink:href="#linearGradient3924"
       gradientUnits="userSpaceOnUse"
       gradientTransform="matrix(2.7837849,0,0,2.783783,-2.8108095,-66.810781)" />
    <linearGradient
       id="linearGradient3924">
      <stop
         id="stop3926"
         style="stop-color:#ffffff;stop-opacity:1"
         offset="0" />
      <stop
         id="stop3928"
         style="stop-color:#ffffff;stop-opacity:0.23529412"
         offset="0.06316455" />
      <stop
         id="stop3930"
         style="stop-color:#ffffff;stop-opacity:0.15686275"
         offset="0.95056331" />
      <stop
         id="stop3932"
         style="stop-color:#ffffff;stop-opacity:0.39215687"
         offset="1" />
    </linearGradient>
    <radialGradient
       cx="74.375"
       cy="67.125"
       r="3.125"
       fx="74.375"
       fy="67.125"
       id="radialGradient7372"
       xlink:href="#linearGradient3543"
       gradientUnits="userSpaceOnUse" />
    <linearGradient
       id="linearGradient3543">
      <stop
         id="stop3545"
         style="stop-color:#ffffff;stop-opacity:1"
         offset="0" />
      <stop
         id="stop3555"
         style="stop-color:#ffffff;stop-opacity:1"
         offset="0.30645162" />
      <stop
         id="stop3551"
         style="stop-color:#ffffff;stop-opacity:0.640625"
         offset="0.51899064" />
      <stop
         id="stop3547"
         style="stop-color:#ffffff;stop-opacity:0"
         offset="1" />
    </linearGradient>
    <radialGradient
       cx="74.375"
       cy="67.125"
       r="3.125"
       fx="74.375"
       fy="67.125"
       id="radialGradient7374"
       xlink:href="#linearGradient3543"
       gradientUnits="userSpaceOnUse" />
    <radialGradient
       cx="74.375"
       cy="67.125"
       r="3.125"
       fx="74.375"
       fy="67.125"
       id="radialGradient7376"
       xlink:href="#linearGradient3543"
       gradientUnits="userSpaceOnUse" />
    <radialGradient
       cx="74.375"
       cy="67.125"
       r="3.125"
       fx="74.375"
       fy="67.125"
       id="radialGradient7378"
       xlink:href="#linearGradient3543"
       gradientUnits="userSpaceOnUse" />
    <radialGradient
       cx="74.375"
       cy="67.125"
       r="3.125"
       fx="74.375"
       fy="67.125"
       id="radialGradient7380"
       xlink:href="#linearGradient3543"
       gradientUnits="userSpaceOnUse" />
    <radialGradient
       cx="74.375"
       cy="67.125"
       r="3.125"
       fx="74.375"
       fy="67.125"
       id="radialGradient7382"
       xlink:href="#linearGradient3543"
       gradientUnits="userSpaceOnUse" />
    <radialGradient
       cx="63.875"
       cy="2.2173476"
       r="58.375"
       fx="63.875"
       fy="2.2173476"
       id="radialGradient7384"
       xlink:href="#linearGradient5226-0"
       gradientUnits="userSpaceOnUse"
       gradientTransform="matrix(0.84390682,0,0,0.33117465,-5.8161585,32.792567)" />
    <linearGradient
       id="linearGradient5226-0">
      <stop
         id="stop5228-7"
         style="stop-color:#ffffff;stop-opacity:1"
         offset="0" />
      <stop
         id="stop5230-6"
         style="stop-color:#ffffff;stop-opacity:0"
         offset="1" />
    </linearGradient>
    <radialGradient
       cx="64.230392"
       cy="68.449158"
       r="43.769611"
       fx="64.230392"
       fy="68.449158"
       id="radialGradient7386"
       xlink:href="#linearGradient5226-0"
       gradientUnits="userSpaceOnUse"
       gradientTransform="matrix(0.9747377,0,0,0.92610887,-14.268168,-12.6013)" />
    <radialGradient
       cx="49.233551"
       cy="70.608253"
       r="25.483549"
       fx="49.233551"
       fy="70.608253"
       id="radialGradient7388"
       xlink:href="#linearGradient5226-0"
       gradientUnits="userSpaceOnUse"
       gradientTransform="matrix(0.51921983,-0.47906434,1.2026838,1.3000296,-72.74405,-19.887561)" />
    <radialGradient
       cx="69.75"
       cy="75.973572"
       r="58.5"
       fx="69.75"
       fy="75.973572"
       id="radialGradient7390"
       xlink:href="#linearGradient5226-0"
       gradientUnits="userSpaceOnUse"
       gradientTransform="matrix(0.70689703,0,0,0.26397967,2.935342,34.087887)" />
    <radialGradient
       cx="7.4956832"
       cy="8.4497671"
       r="19.99999"
       fx="7.4956832"
       fy="8.4497671"
       id="radialGradient2962"
       xlink:href="#linearGradient3974-9"
       gradientUnits="userSpaceOnUse"
       gradientTransform="matrix(5.2307417e-8,6.2918962,-6.6560764,-1.1592075e-7,120.2426,-98.093688)" />
    <linearGradient
       id="linearGradient3974-9">
      <stop
         id="stop3976-3"
         style="stop-color:#a2cdf3;stop-opacity:1"
         offset="0" />
      <stop
         id="stop3978-4"
         style="stop-color:#66a8e5;stop-opacity:1"
         offset="0.26238" />
      <stop
         id="stop3980-1"
         style="stop-color:#3b85c9;stop-opacity:1"
         offset="0.66093999" />
      <stop
         id="stop3982-5"
         style="stop-color:#175389;stop-opacity:1"
         offset="1" />
    </linearGradient>
    <linearGradient
       x1="24"
       y1="44"
       x2="24"
       y2="3.8990016"
       id="linearGradient2964"
       xlink:href="#linearGradient2490-8"
       gradientUnits="userSpaceOnUse"
       gradientTransform="matrix(2.6923079,0,0,2.6923078,-0.6153815,-64.615381)" />
    <linearGradient
       id="linearGradient2490-8">
      <stop
         id="stop2492-3"
         style="stop-color:#124a79;stop-opacity:1"
         offset="0" />
      <stop
         id="stop2494-5"
         style="stop-color:#2789dd;stop-opacity:1"
         offset="1" />
    </linearGradient>
    <filter
       color-interpolation-filters="sRGB"
       id="filter6181">
      <feGaussianBlur
         id="feGaussianBlur6183"
         stdDeviation="1.6001681" />
    </filter>
  </defs>
  <g
     transform="translate(0,64)"
     id="layer1">
    <rect
       width="64"
       height="64"
       rx="3.072"
       ry="3.162353"
       x="4"
       y="-3.8400002"
       transform="matrix(1.7298912,0,0,1.6461868,1.7239154,-43.356621)"
       id="rect5505-2"
       style="opacity:0.4;color:#000000;fill:#000000;fill-opacity:1;fill-rule:nonzero;stroke:none;stroke-width:1;marker:none;visibility:visible;display:inline;overflow:visible;filter:url(#filter6181);enable-background:accumulate" />
    <rect
       width="105"
       height="104.99999"
       rx="5"
       ry="5"
       x="11.5"
       y="-52.499992"
       id="rect5505"
       style="color:#000000;fill:url(#radialGradient2962);fill-opacity:1;fill-rule:nonzero;stroke:url(#linearGradient2964);stroke-width:0.99999994;stroke-linecap:round;stroke-linejoin:round;stroke-miterlimit:4;stroke-opacity:1;stroke-dasharray:none;stroke-dashoffset:0;marker:none;visibility:visible;display:inline;overflow:visible;enable-background:accumulate" />
    <path
       d="m 49.481933,-51.768294 c 2.043,2.73791 0.13939,7.30994 3.22088,7.26455 1.50044,2.11704 -2.99057,0.63152 0.25206,2.26319 1.86471,1.46558 -1.97276,2.30295 0.3365,3.61817 -2.66151,1.37058 0.43141,7.16869 2.40825,8.6198 3.25366,2.73355 1.43892,-5.78749 5.06938,-6.23075 1.97274,-2.24757 5.43753,-3.69034 7.89815,-5.95134 -2.40475,-0.19483 -3.80895,-1.68859 -1.53155,-2.61392 4.19152,4.2864 1.05102,-2.02997 -1.26921,-3.03008 2.24511,-0.71272 4.42864,-0.1908 4.11712,-2.03966 2.37259,-1.73229 -2.28089,-2.2916 -3.94202,-1.89996 -5.51986,0 -11.03971,0 -16.55956,0 z m -34.421369,1.7882 c -3.03303,0.86236 -3.2446,8.09615 -0.19605,4.07932 0.74824,-1.64935 4.20591,-3.63706 0.19605,-4.07932 z m 14.17186,0.25147 c -1.74851,2.73624 0.253709,4.93003 1.708469,1.59261 1.02973,-1.39366 -0.76506,-1.54155 -1.708469,-1.59261 z m 4.369189,0.61469 c -3.37846,1.5627 -0.83275,5.20678 -0.74912,6.01725 3.55898,1.22874 5.53828,-0.80338 6.88467,2.66972 3.38639,1.94772 -0.0666,5.33215 -1.33782,6.21355 2.28967,-1.99003 6.69087,5.41048 5.53708,1.5006 -1.37649,-1.00303 3.69591,1.6113 1.06429,-1.6485 -2.42179,-3.89395 0.19224,-1.74328 1.21328,-0.83447 3.47272,-3.10771 -3.92922,-3.48333 -2.08152,-6.68154 -1.61912,-1.30873 -3.74262,-5.2734 -6.60979,-4.49844 -1.91935,2.47714 -0.26515,-5.39748 -3.08113,-1.45692 -0.14597,2.20276 -0.0531,4.99792 -0.87374,1.18181 -0.54981,-0.66805 0.9459,-2.22114 0.0338,-2.46306 z m -6.889869,0.0279 c -2.2677,0.75449 -2.14591,3.81225 0.64251,4.14006 0.95511,-1.08647 0.37947,-3.93432 -0.64251,-4.14006 z m -8.85041,0.97792 c -2.94553,0.69647 -1.74323,3.06667 -0.84138,3.73421 -3.64609,0.91143 5.5661,1.16488 0.98141,1.74214 -3.81431,1.52025 3.67302,3.31132 4.90134,1.50879 4.7102,1.14959 0.1695,-3.76289 -0.24396,-6.42582 -1.99674,-2.13861 -0.0788,4.93008 -1.88422,0.22777 -0.62992,1.39637 -2.63284,0.20577 -2.91319,-0.78709 z m 93.601476,0.30735 c -3.95256,1.54374 2.4566,7.36934 0.86374,2.06946 -0.15868,-0.63996 0.35682,-2.33083 -0.86374,-2.06946 z m -82.538466,2.347 c -2.8403,2.66382 3.610269,4.86668 -0.81578,6.85117 -0.66364,-2.4739 -1.80548,1.23773 -4.33762,-0.76012 -4.35303,1.80881 -6.57908,-0.9422 -10.22363,-2.82793 -2.18899,-0.27193 -1.36658,2.07569 -1.51157,4.2738 0,6.07477 0,12.14953 0,18.22429 2.14623,2.25348 0.83736,0.99426 0,0.37271 1.17801,4.00386 -0.51947,9.85665 4.12392,12.18561 0.78936,1.46121 4.10166,7.68633005 4.25437,5.82371 -1.66056,-1.73544 -3.36435,-6.93822 -0.55454,-2.30108 2.51675,4.40793005 5.9116,7.26691 10.871069,8.31585 2.71151,0.92046 4.94146,4.08454 7.32596,3.38837 1.34835,3.54727 -3.99585,6.95366 0.17942,10.26223 2.17969,3.34943 5.83909,5.54624 3.85786,10.2486 -1.38552,4.59255 -0.79229,9.59668 -1.9906,13.8756 -0.37191,2.604574 3.63757,9.215354 3.29021,3.921694 1.1707,-3.678724 1.13983,-7.726524 3.897,-10.331684 3.77262,0.0298 0.72104,-4.04845 4.46583,-3.5157 2.28508,-2.98912 2.94695,-6.555 6.80322,-7.74192 0.46063,-3.62834 6.41188,-9.18519 0.26389,-10.59784 -1.67095,-0.82192 -5.9732,-1.11747 -5.64441,-1.52302 0.66613,-3.60026 -5.56335,-4.6252 -8.21382,-6.09818 -3.47999,-2.46514 -8.70906,4.0952 -9.93512,-1.55754 -0.73156,-1.77852 -3.40641,-1.80737 -2.17711,-4.55171995 C 30.637463,2.682076 26.304184,2.013766 27.438664,-2.232814 c 1.7229,-3.57645 8.339369,-3.74567 9.466799,0.55615 -1.56539,-4.74439 3.02583,-8.43772 5.57457,-11.81308 0.51896,-1.61333 3.60254,-2.99943 2.54141,-0.85523 1.80781,-0.0651 4.54789,-3.32082 1.33641,-1.81813 -0.0454,-2.96913 -2.81416,-2.12477 -3.71181,-1.70317 1.66372,-2.63525 10.20809,-1.19453 6.63013,-5.50201 -2.77247,-1.1211 -2.54184,-7.66332 -5.3461,-4.01862 0.23597,-2.24565 -5.70764,-6.64149 -5.57794,-2.87579 0.72551,3.36961 0.13264,7.25131 -1.41133,9.46003 -0.32221,-4.93759 -8.760379,-3.84631 -7.675489,-9.10787 1.571689,-2.50768 3.408299,-5.97546 3.583279,-5.6635 2.81672,-1.07326 5.08187,-4.19514 1.81731,-6.24745 -0.17447,1.78872 -2.45518,5.47922 -2.13406,1.01568 -2.11193,2.49889 -1.62958,-3.9764 -3.607499,-4.64796 z m 67.414339,1.73232 c -4.94736,1.20776 -6.90866,5.92349 -9.35606,9.82939 -3.60764,1.62326 -3.47031,8.59445 0.56013,6.36794 1.07872,1.88022 -0.75463,4.84379 2.38743,2.38531 2.53438,-3.34709 0.44316,-8.7605 4.75605,-10.87104 0.31415,1.64106 -3.97842,7.76883 1.03628,6.76162 4.533367,0.1707 -3.29563,0.45078 -1.09076,3.3407 -2.29081,-1.35644 -1.10046,3.70457 -4.09065,2.52682 -2.5905,1.40624 -4.28918,-0.65293 -3.69576,-2.90869 -2.03785,1.18644 0.64096,4.53349 -2.89662,4.73465 -0.79244,2.80827 -7.30896,2.38499 -3.60312,5.24457 1.64531,4.25547 -6.13048,0.26677 -3.92295,5.37348 1.88865,5.04977 5.84678,-1.67326 7.45264,-2.97216 3.0983,-2.39847 7.68939,4.08964 4.90133,4.33079 3.12629,-0.4186 2.48386,-3.3858 -0.021,-4.53454 -1.35284,-3.50152 4.28262,1.71723 3.97008,3.4728 1.98832,3.71571 1.16953,-3.80432 3.19287,-0.47499 -0.23623,3.51195 8.139467,0.82576 4.140667,5.30171 -3.438037,0.69107 -6.822067,-0.88454 -9.781977,0.12465 -2.75491,-0.0243 -2.61668,-2.9618 -3.61968,-3.69742 -3.50426,0.28413 -7.83459,0.252 -10.18057,3.07722 -2.53689,3.47361 -6.19523,8.32948 -3.43018,12.76486 2.76698,6.57271 9.62889,0.34093 13.57321,4.22263 1.1724,1.6185 -1.01597,3.5424 1.60545,5.29554 0.9864,3.73447 -1.11984,7.28028 1.30281,10.8502 1.25275,3.35734 2.0302,8.3824 6.69285,5.31455 4.934767,-2.96365 3.6204,-8.42695 7.692217,-11.45296 -3.22186,-6.22268 3.94163,-8.95114 5.72894,-14.00283 -3.90488,0.57052 -7.38373,-3.3148 -8.32718,-7.22545995 -1.640387,-1.89949005 -1.21787,-4.70030005 0.6145,-1.13196005 2.51862,2.43557005 2.57304,9.66253 7.23207,5.94472 2.12995,-0.88909 7.94685,-4.28062995 3.31204,-5.82405 -2.98757,2.15951005 -6.28364,-6.45266 -1.89653,-1.45742 3.18938,1.35038 5.42283,2.15495005 5.42283,-2.32223 0,-12.06247 0,-24.28837 0,-36.43256 -0.99345,1.01315 -3.54566,2.88433 -4.83388,1.64096 -2.21665,0.30805 -5.14291,4.61234 -4.4463,0.45149 -1.92678,-0.12734 -0.34491,3.73076 -2.99205,3.83866 -0.26654,1.98348 -2.67413,0.3673 -1.76977,2.25087 -1.85795,-1.31527 -3.430357,-5.46799 0.23046,-2.86147 5.43652,-1.62772 -3.585037,-5.29923 -4.281387,-6.18667 1.17056,-0.2799 -1.27352,-1.49729 -1.56843,-1.08968 z m -44.86821,1.08968 c -1.80948,1.50464 3.4401,1.78799 0,0 z m -24.170569,0.81028 c -2.02386,2.1127 3.223109,1.94218 0,0 z m 11.735189,2.09554 c -1.5326,2.50556 2.26451,0.92505 0,0 z m 33.55313,2.9617 c -1.79429,2.06153 -4.16254,-0.54255 -4.20115,1.22939 0.32518,0.5354 1.6277,4.35667 4.48122,1.53673 1.53151,-0.64438 0.92853,-2.26879 -0.28007,-2.76612 z m -38.2024,1.22939 c -3.40328,2.96614 5.77981,3.23943 0.72098,0.34019 l -0.72098,-0.34019 z m 44.89622,8.21453 c -2.4503,1.5946 1.17549,4.98105 -0.0533,6.5718 -1.53536,2.6697 5.70555,-0.18806 1.8381,-2.31805 -0.27556,-1.82999 -2.26575,-4.06279 -1.78477,-4.25375 z m -1.65245,3.21316 c -3.41392,0.96323 -0.775,5.93635 0.43415,1.25242 0.0681,-0.27155 0.16016,-1.2615 -0.43415,-1.25242 z m -27.33544,3.60434 c -3.17599,2.16127 -0.49329,4.31857 1.83432,3.34612 -0.47786,-1.304 -1.81278,-2.12561 -1.83432,-3.34612 z m 59.992337,3.63227 c 1.58469,0.79814 -2.904,2.16159 -0.0617,3.56627 1.65407,1.94123 1.03048,6.1083 -1.65806,3.15903 0.4995,-3.29285 -3.64442,-5.75198 1.71976,-6.7253 z m -8.15024,0.028 c -0.21501,2.11552 4.57349,5.40387 -0.58815,4.33078 -2.729687,0.31956 -6.818157,-0.0832 -3.379287,-3.47774 1.08661,-0.65102 3.939687,2.24609 2.455037,-0.46188 0.52636,-0.0335 1.01657,-0.2318 1.5124,-0.39116 z m -15.768277,4.58225 c -1.991,1.28011 1.37674,2.26168 0,0 z m -49.99361,11.93062005 c -0.33565,1.11756 6.29695,2.25010995 1.72009,0.45966 l -0.68227,-0.23968 -1.03782,-0.21998 z m 5.15341,1.59261995 c -2.01181,2.03823 4.14491,0.60894 0,0 z m 67.274307,18.69224 c -4.37137,0.11257 -3.79023,11.3652 -0.74302,4.7069 0.28898,-1.44486 1.4472,-3.35188 0.74302,-4.7069 z"
       id="path3522-3"
       style="opacity:0.2;fill:#ffffff;fill-opacity:1;stroke:none;display:inline" />
    <path
       d="m 49.481933,-52.768494 c 2.043,2.73791 0.13939,7.30994 3.22088,7.26455 1.50044,2.11704 -2.99057,0.63152 0.25206,2.26319 1.86471,1.46558 -1.97276,2.30295 0.3365,3.61817 -2.66151,1.37058 0.43141,7.16869 2.40825,8.6198 3.25366,2.73355 1.43892,-5.78749 5.06938,-6.23075 1.97274,-2.24757 5.43753,-3.69034 7.89815,-5.95134 -2.40475,-0.19483 -3.80895,-1.68859 -1.53155,-2.61392 4.19152,4.2864 1.05102,-2.02997 -1.26921,-3.03008 2.24511,-0.71272 4.42864,-0.1908 4.11712,-2.03966 2.37259,-1.73229 -2.28089,-2.2916 -3.94202,-1.89996 -5.51986,0 -11.03971,0 -16.55956,0 z m -34.421369,1.7882 c -3.03303,0.86236 -3.2446,8.09615 -0.19605,4.07932 0.74824,-1.64935 4.20591,-3.63706 0.19605,-4.07932 z m 14.17186,0.25147 c -1.74851,2.73624 0.253709,4.93003 1.708469,1.59261 1.02973,-1.39366 -0.76506,-1.54155 -1.708469,-1.59261 z m 4.369189,0.61469 c -3.37846,1.5627 -0.83275,5.20678 -0.74912,6.01725 3.55898,1.22874 5.53828,-0.80338 6.88467,2.66972 3.38639,1.94772 -0.0666,5.33215 -1.33782,6.21355 2.28967,-1.99003 6.69087,5.41048 5.53708,1.5006 -1.37649,-1.00303 3.69591,1.6113 1.06429,-1.6485 -2.42179,-3.89395 0.19224,-1.74328 1.21328,-0.83447 3.47272,-3.10771 -3.92922,-3.48333 -2.08152,-6.68154 -1.61912,-1.30873 -3.74262,-5.2734 -6.60979,-4.49844 -1.91935,2.47714 -0.26515,-5.39748 -3.08113,-1.45692 -0.14597,2.20276 -0.0531,4.99792 -0.87374,1.18181 -0.54981,-0.66805 0.9459,-2.22114 0.0338,-2.46306 z m -6.889869,0.0279 c -2.2677,0.75449 -2.14591,3.81225 0.64251,4.14006 0.95511,-1.08647 0.37947,-3.93432 -0.64251,-4.14006 z m -8.85041,0.97792 c -2.94553,0.69647 -1.74323,3.06667 -0.84138,3.73421 -3.64609,0.91143 5.5661,1.16488 0.98141,1.74214 -3.81431,1.52025 3.67302,3.31132 4.90134,1.50879 4.7102,1.14959 0.1695,-3.76289 -0.24396,-6.42582 -1.99674,-2.13861 -0.0788,4.93008 -1.88422,0.22777 -0.62992,1.39637 -2.63284,0.20577 -2.91319,-0.78709 z m 93.601476,0.30735 c -3.95256,1.54374 2.4566,7.36934 0.86374,2.06946 -0.15868,-0.63996 0.35682,-2.33083 -0.86374,-2.06946 z m -82.538466,2.347 c -2.8403,2.66382 3.610269,4.86668 -0.81578,6.85117 -0.66364,-2.4739 -1.80548,1.23773 -4.33762,-0.76012 -4.35303,1.80881 -6.57908,-0.9422 -10.22363,-2.82793 -2.18899,-0.27193 -1.36658,2.07569 -1.51157,4.2738 0,6.07477 0,12.14953 0,18.22429 2.14623,2.25348 0.83736,0.99426 0,0.37271 1.17801,4.00386 -0.51947,9.85665 4.12392,12.18561 0.78936,1.46121 4.10166,7.68633005 4.25437,5.82371 -1.66056,-1.73544 -3.36435,-6.93822 -0.55454,-2.30108 2.51675,4.40793005 5.9116,7.26691 10.871069,8.31585 2.71151,0.92046 4.94146,4.08454 7.32596,3.38837 1.34835,3.54727 -3.99585,6.95366 0.17942,10.26223 2.17969,3.34943 5.83909,5.54624 3.85786,10.2486 -1.38552,4.59255 -0.79229,9.59668 -1.9906,13.8756 -0.37191,2.604574 3.63757,9.215354 3.29021,3.921694 1.1707,-3.678724 1.13983,-7.726524 3.897,-10.331684 3.77262,0.0298 0.72104,-4.04845 4.46583,-3.5157 2.28508,-2.98912 2.94695,-6.555 6.80322,-7.74192 0.46063,-3.62834 6.41188,-9.18519 0.26389,-10.59784 -1.67095,-0.82192 -5.9732,-1.11747 -5.64441,-1.52302 0.66613,-3.60026 -5.56335,-4.6252 -8.21382,-6.09818 -3.47999,-2.46514 -8.70906,4.0952 -9.93512,-1.55754 -0.73156,-1.77852 -3.40641,-1.80737 -2.17711,-4.55171995 C 30.637463,1.681876 26.304184,1.013566 27.438664,-3.233014 c 1.7229,-3.57645 8.339369,-3.74567 9.466799,0.55615 -1.56539,-4.74439 3.02583,-8.43772 5.57457,-11.81308 0.51896,-1.61333 3.60254,-2.99943 2.54141,-0.85523 1.80781,-0.0651 4.54789,-3.32082 1.33641,-1.81813 -0.0454,-2.96913 -2.81416,-2.12477 -3.71181,-1.70317 1.66372,-2.63525 10.20809,-1.19453 6.63013,-5.50201 -2.77247,-1.1211 -2.54184,-7.66332 -5.3461,-4.01862 0.23597,-2.24565 -5.70764,-6.64149 -5.57794,-2.87579 0.72551,3.36961 0.13264,7.25131 -1.41133,9.46003 -0.32221,-4.93759 -8.760379,-3.84631 -7.675489,-9.10787 1.571689,-2.50768 3.408299,-5.97546 3.583279,-5.6635 2.81672,-1.07326 5.08187,-4.19514 1.81731,-6.24745 -0.17447,1.78872 -2.45518,5.47922 -2.13406,1.01568 -2.11193,2.49889 -1.62958,-3.9764 -3.607499,-4.64796 z m 67.414339,1.73232 c -4.94736,1.20776 -6.90866,5.92349 -9.35606,9.82939 -3.60764,1.62326 -3.47031,8.59445 0.56013,6.36794 1.07872,1.88022 -0.75463,4.84379 2.38743,2.38531 2.53438,-3.34709 0.44316,-8.7605 4.75605,-10.87104 0.31415,1.64106 -3.97842,7.76883 1.03628,6.76162 4.533367,0.1707 -3.29563,0.45078 -1.09076,3.3407 -2.29081,-1.35644 -1.10046,3.70457 -4.09065,2.52682 -2.5905,1.40624 -4.28918,-0.65293 -3.69576,-2.90869 -2.03785,1.18644 0.64096,4.53349 -2.89662,4.73465 -0.79244,2.80827 -7.30896,2.38499 -3.60312,5.24457 1.64531,4.25547 -6.13048,0.26677 -3.92295,5.37348 1.88865,5.04977 5.84678,-1.67326 7.45264,-2.97216 3.0983,-2.39847 7.68939,4.08964 4.90133,4.33079 3.12629,-0.4186 2.48386,-3.3858 -0.021,-4.53454 -1.35284,-3.50152 4.28262,1.71723 3.97008,3.4728 1.98832,3.71571 1.16953,-3.80432 3.19287,-0.47499 -0.23623,3.51195 8.139467,0.82576 4.140667,5.30171 -3.438037,0.69107 -6.822067,-0.88454 -9.781977,0.12465 -2.75491,-0.0243 -2.61668,-2.9618 -3.61968,-3.69742 -3.50426,0.28413 -7.83459,0.252 -10.18057,3.07722 -2.53689,3.47361 -6.19523,8.32948 -3.43018,12.76486 2.76698,6.57271 9.62889,0.34093 13.57321,4.22263 1.1724,1.6185 -1.01597,3.5424 1.60545,5.29554 0.9864,3.73447 -1.11984,7.28028 1.30281,10.8502 1.25275,3.35734 2.0302,8.3824 6.69285,5.31455 4.934767,-2.96365 3.6204,-8.42695 7.692217,-11.45296 -3.22186,-6.22268 3.94163,-8.95114 5.72894,-14.00283 -3.90488,0.57052 -7.38373,-3.3148 -8.32718,-7.22546 -1.640387,-1.89949 -1.21787,-4.7003 0.6145,-1.13196 2.51862,2.43557005 2.57304,9.66253 7.23207,5.94472 2.12995,-0.88909 7.94685,-4.28063 3.31204,-5.82405 -2.98757,2.15951005 -6.28364,-6.45266 -1.89653,-1.45742 3.18938,1.35038 5.42283,2.15495 5.42283,-2.32223 0,-12.06247 0,-24.28837 0,-36.43256 -0.99345,1.01315 -3.54566,2.88433 -4.83388,1.64096 -2.21665,0.30805 -5.14291,4.61234 -4.4463,0.45149 -1.92678,-0.12734 -0.34491,3.73076 -2.99205,3.83866 -0.26654,1.98348 -2.67413,0.3673 -1.76977,2.25087 -1.85795,-1.31527 -3.430357,-5.46799 0.23046,-2.86147 5.43652,-1.62772 -3.585037,-5.29923 -4.281387,-6.18667 1.17056,-0.2799 -1.27352,-1.49729 -1.56843,-1.08968 z m -44.86821,1.08968 c -1.80948,1.50464 3.4401,1.78799 0,0 z m -24.170569,0.81028 c -2.02386,2.1127 3.223109,1.94218 0,0 z m 11.735189,2.09554 c -1.5326,2.50556 2.26451,0.92505 0,0 z m 33.55313,2.9617 c -1.79429,2.06153 -4.16254,-0.54255 -4.20115,1.22939 0.32518,0.5354 1.6277,4.35667 4.48122,1.53673 1.53151,-0.64438 0.92853,-2.26879 -0.28007,-2.76612 z m -38.2024,1.22939 c -3.40328,2.96614 5.77981,3.23943 0.72098,0.34019 l -0.72098,-0.34019 z m 44.89622,8.21453 c -2.4503,1.5946 1.17549,4.98105 -0.0533,6.5718 -1.53536,2.6697 5.70555,-0.18806 1.8381,-2.31805 -0.27556,-1.82999 -2.26575,-4.06279 -1.78477,-4.25375 z m -1.65245,3.21316 c -3.41392,0.96323 -0.775,5.93635 0.43415,1.25242 0.0681,-0.27155 0.16016,-1.2615 -0.43415,-1.25242 z m -27.33544,3.60434 c -3.17599,2.16127 -0.49329,4.31857 1.83432,3.34612 -0.47786,-1.304 -1.81278,-2.12561 -1.83432,-3.34612 z m 59.992337,3.63227 c 1.58469,0.79814 -2.904,2.16159 -0.0617,3.56627 1.65407,1.94123 1.03048,6.1083 -1.65806,3.15903 0.4995,-3.29285 -3.64442,-5.75198 1.71976,-6.7253 z m -8.15024,0.028 c -0.21501,2.11552 4.57349,5.40387 -0.58815,4.33078 -2.729687,0.31956 -6.818157,-0.0832 -3.379287,-3.47774 1.08661,-0.65102 3.939687,2.24609 2.455037,-0.46188 0.52636,-0.0335 1.01657,-0.2318 1.5124,-0.39116 z m -15.768277,4.58225 c -1.991,1.28011 1.37674,2.26168 0,0 z m -49.99361,11.93062 c -0.33565,1.11756005 6.29695,2.25011005 1.72009,0.45966005 l -0.68227,-0.23968005 -1.03782,-0.21998 z m 5.15341,1.59262005 c -2.01181,2.03822995 4.14491,0.60894 0,0 z M 108.80208,18.954976 c -4.37137,0.11257 -3.79023,11.3652 -0.74302,4.7069 0.28898,-1.44486 1.4472,-3.35188 0.74302,-4.7069 z"
       id="path3522"
       style="opacity:0.5;fill:#0a3865;fill-opacity:1;stroke:none;display:inline" />
    <g
       transform="matrix(1.2380962,0,0,1.2380958,4.5713782,-60.316164)"
       id="layer4"
       style="opacity:0.8">
      <path
         d="m 77.5,67.125 a 3.125,3.125 0 1 1 -6.25,0 3.125,3.125 0 1 1 6.25,0 z"
         transform="matrix(1.3572422,0,0,1.3554377,-73.268157,-53.871603)"
         id="path3537"
         style="fill:url(#radialGradient7372);fill-opacity:1;fill-rule:evenodd;stroke:none;display:inline" />
      <path
         d="m 77.5,67.125 a 3.125,3.125 0 1 1 -6.25,0 3.125,3.125 0 1 1 6.25,0 z"
         transform="matrix(1.0744835,0,0,1.0730548,-39.513825,-14.090919)"
         id="path3557"
         style="fill:url(#radialGradient7374);fill-opacity:1;fill-rule:evenodd;stroke:none;display:inline" />
      <path
         d="m 77.5,67.125 a 3.125,3.125 0 1 1 -6.25,0 3.125,3.125 0 1 1 6.25,0 z"
         transform="matrix(1.5834493,0,0,1.581344,-53.333661,-72.388859)"
         id="path3561"
         style="fill:url(#radialGradient7376);fill-opacity:1;fill-rule:evenodd;stroke:none;display:inline" />
      <path
         d="m 77.5,67.125 a 3.125,3.125 0 1 1 -6.25,0 3.125,3.125 0 1 1 6.25,0 z"
         transform="matrix(1.0219348,0,0,1.020576,-15.635673,-16.92189)"
         id="path3565"
         style="opacity:0.6;fill:url(#radialGradient7378);fill-opacity:1;fill-rule:evenodd;stroke:none;display:inline" />
      <path
         d="m 77.5,67.125 a 3.125,3.125 0 1 1 -6.25,0 3.125,3.125 0 1 1 6.25,0 z"
         transform="matrix(0.79408906,0,0,0.79303321,-44.284507,-21.76786)"
         id="path3569"
         style="opacity:0.6;fill:url(#radialGradient7380);fill-opacity:1;fill-rule:evenodd;stroke:none;display:inline" />
      <path
         d="m 77.5,67.125 a 3.125,3.125 0 1 1 -6.25,0 3.125,3.125 0 1 1 6.25,0 z"
         transform="matrix(0.56551763,0,0,0.5647657,38.456917,3.2615074)"
         id="path3573"
         style="opacity:0.6;fill:url(#radialGradient7382);fill-opacity:1;fill-rule:evenodd;stroke:none;display:inline" />
      <path
         d="M 7.1767242,47.701508 C 35.275882,28.287687 72.387975,27.228751 89.000056,49.289911"
         id="path3577"
         style="fill:none;stroke:url(#radialGradient7384);stroke-width:1.0769217;stroke-linecap:butt;stroke-linejoin:miter;stroke-miterlimit:4;stroke-opacity:1;stroke-dasharray:none;display:inline" />
      <path
         d="M 27.676739,88.823511 C 26.616393,73.292454 56.129343,28.640665 88.823332,20.875137"
         id="path3581"
         style="fill:none;stroke:url(#radialGradient7386);stroke-width:1.0769217;stroke-linecap:butt;stroke-linejoin:miter;stroke-miterlimit:4;stroke-opacity:1;stroke-dasharray:none;display:inline" />
      <path
         d="M 7,29.523112 C 58.250036,38.347576 38.633643,89 38.633643,89"
         id="path3583"
         style="fill:none;stroke:url(#radialGradient7388);stroke-width:1.0769217;stroke-linecap:butt;stroke-linejoin:miter;stroke-miterlimit:4;stroke-opacity:1;stroke-dasharray:none;display:inline" />
      <path
         d="M 7.1767242,67.821286 C 58.42676,56.349483 89.17678,37.641619 89.17678,37.641619"
         id="path3585"
         style="opacity:0.6;fill:none;stroke:url(#radialGradient7390);stroke-width:0.80769128;stroke-linecap:butt;stroke-linejoin:miter;stroke-miterlimit:4;stroke-opacity:1;stroke-dasharray:none;display:inline" />
    </g>
    <rect
       width="103"
       height="103.00001"
       rx="4"
       ry="4"
       x="12.5"
       y="-51.5"
       id="rect6741"
       style="opacity:0.5;fill:none;stroke:url(#linearGradient2959);stroke-width:1;stroke-linecap:round;stroke-linejoin:round;stroke-miterlimit:4;stroke-opacity:1;stroke-dasharray:none;stroke-dashoffset:0" />
  </g>
</svg>
